<?xml version="1.0" encoding="utf-8" standalone="no"?>
<!DOCTYPE svg PUBLIC "-//W3C//DTD SVG 1.1//EN"
  "http://www.w3.org/Graphics/SVG/1.1/DTD/svg11.dtd">
<svg xmlns:xlink="http://www.w3.org/1999/xlink" width="568.343125pt" height="424.544573pt" viewBox="0 0 568.343125 424.544573" xmlns="http://www.w3.org/2000/svg" version="1.1">
 <metadata>
  <rdf:RDF xmlns:dc="http://purl.org/dc/elements/1.1/" xmlns:cc="http://creativecommons.org/ns#" xmlns:rdf="http://www.w3.org/1999/02/22-rdf-syntax-ns#">
   <cc:Work>
    <dc:type rdf:resource="http://purl.org/dc/dcmitype/StillImage"/>
    <dc:date>2024-07-04T20:50:23.226844</dc:date>
    <dc:format>image/svg+xml</dc:format>
    <dc:creator>
     <cc:Agent>
      <dc:title>Matplotlib v3.7.1, https://matplotlib.org/</dc:title>
     </cc:Agent>
    </dc:creator>
   </cc:Work>
  </rdf:RDF>
 </metadata>
 <defs>
  <style type="text/css">*{stroke-linejoin: round; stroke-linecap: butt}</style>
 </defs>
 <g id="figure_1">
  <g id="patch_1">
   <path d="M 0 424.544573 
L 568.343125 424.544573 
L 568.343125 0 
L 0 0 
z
" style="fill: #ffffff"/>
  </g>
  <g id="axes_1">
   <g id="patch_2">
    <path d="M 40.603125 360.27807 
L 561.143125 360.27807 
L 561.143125 22.318125 
L 40.603125 22.318125 
z
" style="fill: #ffffff"/>
   </g>
   <g id="patch_3">
    <path d="M 64.264034 360.27807 
L 65.301793 360.27807 
L 65.301793 360.27807 
L 64.264034 360.27807 
z
" clip-path="url(#pa56861b9e2)" style="fill: #008000"/>
   </g>
   <g id="patch_4">
    <path d="M 65.561233 360.27807 
L 66.598992 360.27807 
L 66.598992 360.27807 
L 65.561233 360.27807 
z
" clip-path="url(#pa56861b9e2)" style="fill: #008000"/>
   </g>
   <g id="patch_5">
    <path d="M 66.858432 360.27807 
L 67.896191 360.27807 
L 67.896191 360.27807 
L 66.858432 360.27807 
z
" clip-path="url(#pa56861b9e2)" style="fill: #008000"/>
   </g>
   <g id="patch_6">
    <path d="M 68.155631 360.27807 
L 69.19339 360.27807 
L 69.19339 360.27807 
L 68.155631 360.27807 
z
" clip-path="url(#pa56861b9e2)" style="fill: #008000"/>
   </g>
   <g id="patch_7">
    <path d="M 69.45283 360.27807 
L 70.490589 360.27807 
L 70.490589 360.27807 
L 69.45283 360.27807 
z
" clip-path="url(#pa56861b9e2)" style="fill: #008000"/>
   </g>
   <g id="patch_8">
    <path d="M 70.750029 360.27807 
L 71.787788 360.27807 
L 71.787788 360.27807 
L 70.750029 360.27807 
z
" clip-path="url(#pa56861b9e2)" style="fill: #008000"/>
   </g>
   <g id="patch_9">
    <path d="M 72.047228 360.27807 
L 73.084987 360.27807 
L 73.084987 360.27807 
L 72.047228 360.27807 
z
" clip-path="url(#pa56861b9e2)" style="fill: #008000"/>
   </g>
   <g id="patch_10">
    <path d="M 73.344427 360.27807 
L 74.382186 360.27807 
L 74.382186 360.27807 
L 73.344427 360.27807 
z
" clip-path="url(#pa56861b9e2)" style="fill: #008000"/>
   </g>
   <g id="patch_11">
    <path d="M 74.641626 360.27807 
L 75.679385 360.27807 
L 75.679385 360.27807 
L 74.641626 360.27807 
z
" clip-path="url(#pa56861b9e2)" style="fill: #008000"/>
   </g>
   <g id="patch_12">
    <path d="M 75.938825 360.27807 
L 76.976584 360.27807 
L 76.976584 360.27807 
L 75.938825 360.27807 
z
" clip-path="url(#pa56861b9e2)" style="fill: #008000"/>
   </g>
   <g id="patch_13">
    <path d="M 77.236024 360.27807 
L 78.273783 360.27807 
L 78.273783 360.27807 
L 77.236024 360.27807 
z
" clip-path="url(#pa56861b9e2)" style="fill: #008000"/>
   </g>
   <g id="patch_14">
    <path d="M 78.533223 360.27807 
L 79.570982 360.27807 
L 79.570982 360.27807 
L 78.533223 360.27807 
z
" clip-path="url(#pa56861b9e2)" style="fill: #008000"/>
   </g>
   <g id="patch_15">
    <path d="M 79.830422 360.27807 
L 80.868181 360.27807 
L 80.868181 360.27807 
L 79.830422 360.27807 
z
" clip-path="url(#pa56861b9e2)" style="fill: #008000"/>
   </g>
   <g id="patch_16">
    <path d="M 81.127621 360.27807 
L 82.16538 360.27807 
L 82.16538 360.27807 
L 81.127621 360.27807 
z
" clip-path="url(#pa56861b9e2)" style="fill: #008000"/>
   </g>
   <g id="patch_17">
    <path d="M 82.42482 360.27807 
L 83.462579 360.27807 
L 83.462579 360.27807 
L 82.42482 360.27807 
z
" clip-path="url(#pa56861b9e2)" style="fill: #008000"/>
   </g>
   <g id="patch_18">
    <path d="M 83.722019 360.27807 
L 84.759778 360.27807 
L 84.759778 360.27807 
L 83.722019 360.27807 
z
" clip-path="url(#pa56861b9e2)" style="fill: #008000"/>
   </g>
   <g id="patch_19">
    <path d="M 85.019218 360.27807 
L 86.056977 360.27807 
L 86.056977 360.27807 
L 85.019218 360.27807 
z
" clip-path="url(#pa56861b9e2)" style="fill: #008000"/>
   </g>
   <g id="patch_20">
    <path d="M 86.316416 360.27807 
L 87.354176 360.27807 
L 87.354176 358.475144 
L 86.316416 358.475144 
z
" clip-path="url(#pa56861b9e2)" style="fill: #008000"/>
   </g>
   <g id="patch_21">
    <path d="M 87.613615 360.27807 
L 88.651375 360.27807 
L 88.651375 360.27807 
L 87.613615 360.27807 
z
" clip-path="url(#pa56861b9e2)" style="fill: #008000"/>
   </g>
   <g id="patch_22">
    <path d="M 88.910814 360.27807 
L 89.948574 360.27807 
L 89.948574 360.27807 
L 88.910814 360.27807 
z
" clip-path="url(#pa56861b9e2)" style="fill: #008000"/>
   </g>
   <g id="patch_23">
    <path d="M 90.208013 360.27807 
L 91.245773 360.27807 
L 91.245773 360.27807 
L 90.208013 360.27807 
z
" clip-path="url(#pa56861b9e2)" style="fill: #008000"/>
   </g>
   <g id="patch_24">
    <path d="M 91.505212 360.27807 
L 92.542971 360.27807 
L 92.542971 360.27807 
L 91.505212 360.27807 
z
" clip-path="url(#pa56861b9e2)" style="fill: #008000"/>
   </g>
   <g id="patch_25">
    <path d="M 92.802411 360.27807 
L 93.84017 360.27807 
L 93.84017 351.698697 
L 92.802411 351.698697 
z
" clip-path="url(#pa56861b9e2)" style="fill: #008000"/>
   </g>
   <g id="patch_26">
    <path d="M 94.09961 360.27807 
L 95.137369 360.27807 
L 95.137369 360.27807 
L 94.09961 360.27807 
z
" clip-path="url(#pa56861b9e2)" style="fill: #008000"/>
   </g>
   <g id="patch_27">
    <path d="M 95.396809 360.27807 
L 96.434568 360.27807 
L 96.434568 349.364466 
L 95.396809 349.364466 
z
" clip-path="url(#pa56861b9e2)" style="fill: #008000"/>
   </g>
   <g id="patch_28">
    <path d="M 96.694008 360.27807 
L 97.731767 360.27807 
L 97.731767 360.27807 
L 96.694008 360.27807 
z
" clip-path="url(#pa56861b9e2)" style="fill: #008000"/>
   </g>
   <g id="patch_29">
    <path d="M 97.991207 360.27807 
L 99.028966 360.27807 
L 99.028966 360.27807 
L 97.991207 360.27807 
z
" clip-path="url(#pa56861b9e2)" style="fill: #008000"/>
   </g>
   <g id="patch_30">
    <path d="M 99.288406 360.27807 
L 100.326165 360.27807 
L 100.326165 360.27807 
L 99.288406 360.27807 
z
" clip-path="url(#pa56861b9e2)" style="fill: #008000"/>
   </g>
   <g id="patch_31">
    <path d="M 100.585605 360.27807 
L 101.623364 360.27807 
L 101.623364 360.27807 
L 100.585605 360.27807 
z
" clip-path="url(#pa56861b9e2)" style="fill: #008000"/>
   </g>
   <g id="patch_32">
    <path d="M 101.882804 360.27807 
L 102.920563 360.27807 
L 102.920563 360.27807 
L 101.882804 360.27807 
z
" clip-path="url(#pa56861b9e2)" style="fill: #008000"/>
   </g>
   <g id="patch_33">
    <path d="M 103.180003 360.27807 
L 104.217762 360.27807 
L 104.217762 329.292196 
L 103.180003 329.292196 
z
" clip-path="url(#pa56861b9e2)" style="fill: #008000"/>
   </g>
   <g id="patch_34">
    <path d="M 104.477202 360.27807 
L 105.514961 360.27807 
L 105.514961 360.27807 
L 104.477202 360.27807 
z
" clip-path="url(#pa56861b9e2)" style="fill: #008000"/>
   </g>
   <g id="patch_35">
    <path d="M 105.774401 360.27807 
L 106.81216 360.27807 
L 106.81216 360.27807 
L 105.774401 360.27807 
z
" clip-path="url(#pa56861b9e2)" style="fill: #008000"/>
   </g>
   <g id="patch_36">
    <path d="M 107.0716 360.27807 
L 108.109359 360.27807 
L 108.109359 360.27807 
L 107.0716 360.27807 
z
" clip-path="url(#pa56861b9e2)" style="fill: #008000"/>
   </g>
   <g id="patch_37">
    <path d="M 108.368799 360.27807 
L 109.406558 360.27807 
L 109.406558 360.27807 
L 108.368799 360.27807 
z
" clip-path="url(#pa56861b9e2)" style="fill: #008000"/>
   </g>
   <g id="patch_38">
    <path d="M 109.665998 360.27807 
L 110.703757 360.27807 
L 110.703757 360.27807 
L 109.665998 360.27807 
z
" clip-path="url(#pa56861b9e2)" style="fill: #008000"/>
   </g>
   <g id="patch_39">
    <path d="M 110.963197 360.27807 
L 112.000956 360.27807 
L 112.000956 360.27807 
L 110.963197 360.27807 
z
" clip-path="url(#pa56861b9e2)" style="fill: #008000"/>
   </g>
   <g id="patch_40">
    <path d="M 112.260396 360.27807 
L 113.298155 360.27807 
L 113.298155 360.27807 
L 112.260396 360.27807 
z
" clip-path="url(#pa56861b9e2)" style="fill: #008000"/>
   </g>
   <g id="patch_41">
    <path d="M 113.557595 360.27807 
L 114.595354 360.27807 
L 114.595354 360.27807 
L 113.557595 360.27807 
z
" clip-path="url(#pa56861b9e2)" style="fill: #008000"/>
   </g>
   <g id="patch_42">
    <path d="M 114.854794 360.27807 
L 115.892553 360.27807 
L 115.892553 335.041474 
L 114.854794 335.041474 
z
" clip-path="url(#pa56861b9e2)" style="fill: #008000"/>
   </g>
   <g id="patch_43">
    <path d="M 116.151993 360.27807 
L 117.189752 360.27807 
L 117.189752 355.884755 
L 116.151993 355.884755 
z
" clip-path="url(#pa56861b9e2)" style="fill: #008000"/>
   </g>
   <g id="patch_44">
    <path d="M 117.449192 360.27807 
L 118.486951 360.27807 
L 118.486951 360.27807 
L 117.449192 360.27807 
z
" clip-path="url(#pa56861b9e2)" style="fill: #008000"/>
   </g>
   <g id="patch_45">
    <path d="M 118.746391 360.27807 
L 119.78415 360.27807 
L 119.78415 360.27807 
L 118.746391 360.27807 
z
" clip-path="url(#pa56861b9e2)" style="fill: #008000"/>
   </g>
   <g id="patch_46">
    <path d="M 120.04359 360.27807 
L 121.081349 360.27807 
L 121.081349 320.581302 
L 120.04359 320.581302 
z
" clip-path="url(#pa56861b9e2)" style="fill: #008000"/>
   </g>
   <g id="patch_47">
    <path d="M 121.340788 360.27807 
L 122.378548 360.27807 
L 122.378548 322.596684 
L 121.340788 322.596684 
z
" clip-path="url(#pa56861b9e2)" style="fill: #008000"/>
   </g>
   <g id="patch_48">
    <path d="M 122.637987 360.27807 
L 123.675747 360.27807 
L 123.675747 360.27807 
L 122.637987 360.27807 
z
" clip-path="url(#pa56861b9e2)" style="fill: #008000"/>
   </g>
   <g id="patch_49">
    <path d="M 123.935186 360.27807 
L 124.972946 360.27807 
L 124.972946 347.414218 
L 123.935186 347.414218 
z
" clip-path="url(#pa56861b9e2)" style="fill: #008000"/>
   </g>
   <g id="patch_50">
    <path d="M 125.232385 360.27807 
L 126.270145 360.27807 
L 126.270145 360.27807 
L 125.232385 360.27807 
z
" clip-path="url(#pa56861b9e2)" style="fill: #008000"/>
   </g>
   <g id="patch_51">
    <path d="M 126.529584 360.27807 
L 127.567344 360.27807 
L 127.567344 360.27807 
L 126.529584 360.27807 
z
" clip-path="url(#pa56861b9e2)" style="fill: #008000"/>
   </g>
   <g id="patch_52">
    <path d="M 127.826783 360.27807 
L 128.864542 360.27807 
L 128.864542 360.27807 
L 127.826783 360.27807 
z
" clip-path="url(#pa56861b9e2)" style="fill: #008000"/>
   </g>
   <g id="patch_53">
    <path d="M 129.123982 360.27807 
L 130.161741 360.27807 
L 130.161741 347.414218 
L 129.123982 347.414218 
z
" clip-path="url(#pa56861b9e2)" style="fill: #008000"/>
   </g>
   <g id="patch_54">
    <path d="M 130.421181 360.27807 
L 131.45894 360.27807 
L 131.45894 360.27807 
L 130.421181 360.27807 
z
" clip-path="url(#pa56861b9e2)" style="fill: #008000"/>
   </g>
   <g id="patch_55">
    <path d="M 131.71838 360.27807 
L 132.756139 360.27807 
L 132.756139 360.27807 
L 131.71838 360.27807 
z
" clip-path="url(#pa56861b9e2)" style="fill: #008000"/>
   </g>
   <g id="patch_56">
    <path d="M 133.015579 360.27807 
L 134.053338 360.27807 
L 134.053338 360.27807 
L 133.015579 360.27807 
z
" clip-path="url(#pa56861b9e2)" style="fill: #008000"/>
   </g>
   <g id="patch_57">
    <path d="M 134.312778 360.27807 
L 135.350537 360.27807 
L 135.350537 360.27807 
L 134.312778 360.27807 
z
" clip-path="url(#pa56861b9e2)" style="fill: #008000"/>
   </g>
   <g id="patch_58">
    <path d="M 135.609977 360.27807 
L 136.647736 360.27807 
L 136.647736 273.807257 
L 135.609977 273.807257 
z
" clip-path="url(#pa56861b9e2)" style="fill: #008000"/>
   </g>
   <g id="patch_59">
    <path d="M 136.907176 360.27807 
L 137.944935 360.27807 
L 137.944935 360.27807 
L 136.907176 360.27807 
z
" clip-path="url(#pa56861b9e2)" style="fill: #008000"/>
   </g>
   <g id="patch_60">
    <path d="M 138.204375 360.27807 
L 139.242134 360.27807 
L 139.242134 360.27807 
L 138.204375 360.27807 
z
" clip-path="url(#pa56861b9e2)" style="fill: #008000"/>
   </g>
   <g id="patch_61">
    <path d="M 139.501574 360.27807 
L 140.539333 360.27807 
L 140.539333 360.27807 
L 139.501574 360.27807 
z
" clip-path="url(#pa56861b9e2)" style="fill: #008000"/>
   </g>
   <g id="patch_62">
    <path d="M 140.798773 360.27807 
L 141.836532 360.27807 
L 141.836532 360.27807 
L 140.798773 360.27807 
z
" clip-path="url(#pa56861b9e2)" style="fill: #008000"/>
   </g>
   <g id="patch_63">
    <path d="M 142.095972 360.27807 
L 143.133731 360.27807 
L 143.133731 360.27807 
L 142.095972 360.27807 
z
" clip-path="url(#pa56861b9e2)" style="fill: #008000"/>
   </g>
   <g id="patch_64">
    <path d="M 143.393171 360.27807 
L 144.43093 360.27807 
L 144.43093 360.27807 
L 143.393171 360.27807 
z
" clip-path="url(#pa56861b9e2)" style="fill: #008000"/>
   </g>
   <g id="patch_65">
    <path d="M 144.69037 360.27807 
L 145.728129 360.27807 
L 145.728129 360.27807 
L 144.69037 360.27807 
z
" clip-path="url(#pa56861b9e2)" style="fill: #008000"/>
   </g>
   <g id="patch_66">
    <path d="M 145.987569 360.27807 
L 147.025328 360.27807 
L 147.025328 360.27807 
L 145.987569 360.27807 
z
" clip-path="url(#pa56861b9e2)" style="fill: #008000"/>
   </g>
   <g id="patch_67">
    <path d="M 147.284768 360.27807 
L 148.322527 360.27807 
L 148.322527 289.924144 
L 147.284768 289.924144 
z
" clip-path="url(#pa56861b9e2)" style="fill: #008000"/>
   </g>
   <g id="patch_68">
    <path d="M 148.581967 360.27807 
L 149.619726 360.27807 
L 149.619726 360.27807 
L 148.581967 360.27807 
z
" clip-path="url(#pa56861b9e2)" style="fill: #008000"/>
   </g>
   <g id="patch_69">
    <path d="M 149.879166 360.27807 
L 150.916925 360.27807 
L 150.916925 345.256752 
L 149.879166 345.256752 
z
" clip-path="url(#pa56861b9e2)" style="fill: #008000"/>
   </g>
   <g id="patch_70">
    <path d="M 151.176365 360.27807 
L 152.214124 360.27807 
L 152.214124 360.27807 
L 151.176365 360.27807 
z
" clip-path="url(#pa56861b9e2)" style="fill: #008000"/>
   </g>
   <g id="patch_71">
    <path d="M 152.473564 360.27807 
L 153.511323 360.27807 
L 153.511323 333.545787 
L 152.473564 333.545787 
z
" clip-path="url(#pa56861b9e2)" style="fill: #008000"/>
   </g>
   <g id="patch_72">
    <path d="M 153.770763 360.27807 
L 154.808522 360.27807 
L 154.808522 360.27807 
L 153.770763 360.27807 
z
" clip-path="url(#pa56861b9e2)" style="fill: #008000"/>
   </g>
   <g id="patch_73">
    <path d="M 155.067962 360.27807 
L 156.105721 360.27807 
L 156.105721 360.27807 
L 155.067962 360.27807 
z
" clip-path="url(#pa56861b9e2)" style="fill: #008000"/>
   </g>
   <g id="patch_74">
    <path d="M 156.36516 360.27807 
L 157.40292 360.27807 
L 157.40292 360.27807 
L 156.36516 360.27807 
z
" clip-path="url(#pa56861b9e2)" style="fill: #008000"/>
   </g>
   <g id="patch_75">
    <path d="M 157.662359 360.27807 
L 158.700119 360.27807 
L 158.700119 360.27807 
L 157.662359 360.27807 
z
" clip-path="url(#pa56861b9e2)" style="fill: #008000"/>
   </g>
   <g id="patch_76">
    <path d="M 158.959558 360.27807 
L 159.997318 360.27807 
L 159.997318 360.27807 
L 158.959558 360.27807 
z
" clip-path="url(#pa56861b9e2)" style="fill: #008000"/>
   </g>
   <g id="patch_77">
    <path d="M 160.256757 360.27807 
L 161.294517 360.27807 
L 161.294517 360.27807 
L 160.256757 360.27807 
z
" clip-path="url(#pa56861b9e2)" style="fill: #008000"/>
   </g>
   <g id="patch_78">
    <path d="M 161.553956 360.27807 
L 162.591716 360.27807 
L 162.591716 347.871337 
L 161.553956 347.871337 
z
" clip-path="url(#pa56861b9e2)" style="fill: #008000"/>
   </g>
   <g id="patch_79">
    <path d="M 162.851155 360.27807 
L 163.888914 360.27807 
L 163.888914 360.27807 
L 162.851155 360.27807 
z
" clip-path="url(#pa56861b9e2)" style="fill: #008000"/>
   </g>
   <g id="patch_80">
    <path d="M 164.148354 360.27807 
L 165.186113 360.27807 
L 165.186113 357.606673 
L 164.148354 357.606673 
z
" clip-path="url(#pa56861b9e2)" style="fill: #008000"/>
   </g>
   <g id="patch_81">
    <path d="M 165.445553 360.27807 
L 166.483312 360.27807 
L 166.483312 360.27807 
L 165.445553 360.27807 
z
" clip-path="url(#pa56861b9e2)" style="fill: #008000"/>
   </g>
   <g id="patch_82">
    <path d="M 166.742752 360.27807 
L 167.780511 360.27807 
L 167.780511 360.27807 
L 166.742752 360.27807 
z
" clip-path="url(#pa56861b9e2)" style="fill: #008000"/>
   </g>
   <g id="patch_83">
    <path d="M 168.039951 360.27807 
L 169.07771 360.27807 
L 169.07771 360.27807 
L 168.039951 360.27807 
z
" clip-path="url(#pa56861b9e2)" style="fill: #008000"/>
   </g>
   <g id="patch_84">
    <path d="M 169.33715 360.27807 
L 170.374909 360.27807 
L 170.374909 360.27807 
L 169.33715 360.27807 
z
" clip-path="url(#pa56861b9e2)" style="fill: #008000"/>
   </g>
   <g id="patch_85">
    <path d="M 170.634349 360.27807 
L 171.672108 360.27807 
L 171.672108 352.051286 
L 170.634349 352.051286 
z
" clip-path="url(#pa56861b9e2)" style="fill: #008000"/>
   </g>
   <g id="patch_86">
    <path d="M 171.931548 360.27807 
L 172.969307 360.27807 
L 172.969307 360.27807 
L 171.931548 360.27807 
z
" clip-path="url(#pa56861b9e2)" style="fill: #008000"/>
   </g>
   <g id="patch_87">
    <path d="M 173.228747 360.27807 
L 174.266506 360.27807 
L 174.266506 360.27807 
L 173.228747 360.27807 
z
" clip-path="url(#pa56861b9e2)" style="fill: #008000"/>
   </g>
   <g id="patch_88">
    <path d="M 174.525946 360.27807 
L 175.563705 360.27807 
L 175.563705 321.202559 
L 174.525946 321.202559 
z
" clip-path="url(#pa56861b9e2)" style="fill: #008000"/>
   </g>
   <g id="patch_89">
    <path d="M 175.823145 360.27807 
L 176.860904 360.27807 
L 176.860904 297.13473 
L 175.823145 297.13473 
z
" clip-path="url(#pa56861b9e2)" style="fill: #008000"/>
   </g>
   <g id="patch_90">
    <path d="M 177.120344 360.27807 
L 178.158103 360.27807 
L 178.158103 360.27807 
L 177.120344 360.27807 
z
" clip-path="url(#pa56861b9e2)" style="fill: #008000"/>
   </g>
   <g id="patch_91">
    <path d="M 178.417543 360.27807 
L 179.455302 360.27807 
L 179.455302 360.27807 
L 178.417543 360.27807 
z
" clip-path="url(#pa56861b9e2)" style="fill: #008000"/>
   </g>
   <g id="patch_92">
    <path d="M 179.714742 360.27807 
L 180.752501 360.27807 
L 180.752501 312.143052 
L 179.714742 312.143052 
z
" clip-path="url(#pa56861b9e2)" style="fill: #008000"/>
   </g>
   <g id="patch_93">
    <path d="M 181.011941 360.27807 
L 182.0497 360.27807 
L 182.0497 360.27807 
L 181.011941 360.27807 
z
" clip-path="url(#pa56861b9e2)" style="fill: #008000"/>
   </g>
   <g id="patch_94">
    <path d="M 182.30914 360.27807 
L 183.346899 360.27807 
L 183.346899 360.27807 
L 182.30914 360.27807 
z
" clip-path="url(#pa56861b9e2)" style="fill: #008000"/>
   </g>
   <g id="patch_95">
    <path d="M 183.606339 360.27807 
L 184.644098 360.27807 
L 184.644098 318.409971 
L 183.606339 318.409971 
z
" clip-path="url(#pa56861b9e2)" style="fill: #008000"/>
   </g>
   <g id="patch_96">
    <path d="M 184.903538 360.27807 
L 185.941297 360.27807 
L 185.941297 360.27807 
L 184.903538 360.27807 
z
" clip-path="url(#pa56861b9e2)" style="fill: #008000"/>
   </g>
   <g id="patch_97">
    <path d="M 186.200737 360.27807 
L 187.238496 360.27807 
L 187.238496 360.27807 
L 186.200737 360.27807 
z
" clip-path="url(#pa56861b9e2)" style="fill: #008000"/>
   </g>
   <g id="patch_98">
    <path d="M 187.497936 360.27807 
L 188.535695 360.27807 
L 188.535695 360.27807 
L 187.497936 360.27807 
z
" clip-path="url(#pa56861b9e2)" style="fill: #008000"/>
   </g>
   <g id="patch_99">
    <path d="M 188.795135 360.27807 
L 189.832894 360.27807 
L 189.832894 360.27807 
L 188.795135 360.27807 
z
" clip-path="url(#pa56861b9e2)" style="fill: #008000"/>
   </g>
   <g id="patch_100">
    <path d="M 190.092334 360.27807 
L 191.130093 360.27807 
L 191.130093 360.27807 
L 190.092334 360.27807 
z
" clip-path="url(#pa56861b9e2)" style="fill: #008000"/>
   </g>
   <g id="patch_101">
    <path d="M 191.389532 360.27807 
L 192.427292 360.27807 
L 192.427292 360.27807 
L 191.389532 360.27807 
z
" clip-path="url(#pa56861b9e2)" style="fill: #008000"/>
   </g>
   <g id="patch_102">
    <path d="M 192.686731 360.27807 
L 193.724491 360.27807 
L 193.724491 356.093 
L 192.686731 356.093 
z
" clip-path="url(#pa56861b9e2)" style="fill: #008000"/>
   </g>
   <g id="patch_103">
    <path d="M 193.98393 360.27807 
L 195.02169 360.27807 
L 195.02169 317.410692 
L 193.98393 317.410692 
z
" clip-path="url(#pa56861b9e2)" style="fill: #008000"/>
   </g>
   <g id="patch_104">
    <path d="M 195.281129 360.27807 
L 196.318889 360.27807 
L 196.318889 360.27807 
L 195.281129 360.27807 
z
" clip-path="url(#pa56861b9e2)" style="fill: #008000"/>
   </g>
   <g id="patch_105">
    <path d="M 196.578328 360.27807 
L 197.616088 360.27807 
L 197.616088 312.661975 
L 196.578328 312.661975 
z
" clip-path="url(#pa56861b9e2)" style="fill: #008000"/>
   </g>
   <g id="patch_106">
    <path d="M 197.875527 360.27807 
L 198.913286 360.27807 
L 198.913286 360.27807 
L 197.875527 360.27807 
z
" clip-path="url(#pa56861b9e2)" style="fill: #008000"/>
   </g>
   <g id="patch_107">
    <path d="M 199.172726 360.27807 
L 200.210485 360.27807 
L 200.210485 360.27807 
L 199.172726 360.27807 
z
" clip-path="url(#pa56861b9e2)" style="fill: #008000"/>
   </g>
   <g id="patch_108">
    <path d="M 200.469925 360.27807 
L 201.507684 360.27807 
L 201.507684 360.27807 
L 200.469925 360.27807 
z
" clip-path="url(#pa56861b9e2)" style="fill: #008000"/>
   </g>
   <g id="patch_109">
    <path d="M 201.767124 360.27807 
L 202.804883 360.27807 
L 202.804883 360.27807 
L 201.767124 360.27807 
z
" clip-path="url(#pa56861b9e2)" style="fill: #008000"/>
   </g>
   <g id="patch_110">
    <path d="M 203.064323 360.27807 
L 204.102082 360.27807 
L 204.102082 347.778744 
L 203.064323 347.778744 
z
" clip-path="url(#pa56861b9e2)" style="fill: #008000"/>
   </g>
   <g id="patch_111">
    <path d="M 204.361522 360.27807 
L 205.399281 360.27807 
L 205.399281 360.27807 
L 204.361522 360.27807 
z
" clip-path="url(#pa56861b9e2)" style="fill: #008000"/>
   </g>
   <g id="patch_112">
    <path d="M 205.658721 360.27807 
L 206.69648 360.27807 
L 206.69648 347.778744 
L 205.658721 347.778744 
z
" clip-path="url(#pa56861b9e2)" style="fill: #008000"/>
   </g>
   <g id="patch_113">
    <path d="M 206.95592 360.27807 
L 207.993679 360.27807 
L 207.993679 351.328267 
L 206.95592 351.328267 
z
" clip-path="url(#pa56861b9e2)" style="fill: #008000"/>
   </g>
   <g id="patch_114">
    <path d="M 208.253119 360.27807 
L 209.290878 360.27807 
L 209.290878 360.27807 
L 208.253119 360.27807 
z
" clip-path="url(#pa56861b9e2)" style="fill: #008000"/>
   </g>
   <g id="patch_115">
    <path d="M 209.550318 360.27807 
L 210.588077 360.27807 
L 210.588077 344.246509 
L 209.550318 344.246509 
z
" clip-path="url(#pa56861b9e2)" style="fill: #008000"/>
   </g>
   <g id="patch_116">
    <path d="M 210.847517 360.27807 
L 211.885276 360.27807 
L 211.885276 325.664943 
L 210.847517 325.664943 
z
" clip-path="url(#pa56861b9e2)" style="fill: #008000"/>
   </g>
   <g id="patch_117">
    <path d="M 212.144716 360.27807 
L 213.182475 360.27807 
L 213.182475 360.27807 
L 212.144716 360.27807 
z
" clip-path="url(#pa56861b9e2)" style="fill: #008000"/>
   </g>
   <g id="patch_118">
    <path d="M 213.441915 360.27807 
L 214.479674 360.27807 
L 214.479674 360.27807 
L 213.441915 360.27807 
z
" clip-path="url(#pa56861b9e2)" style="fill: #008000"/>
   </g>
   <g id="patch_119">
    <path d="M 214.739114 360.27807 
L 215.776873 360.27807 
L 215.776873 360.27807 
L 214.739114 360.27807 
z
" clip-path="url(#pa56861b9e2)" style="fill: #008000"/>
   </g>
   <g id="patch_120">
    <path d="M 216.036313 360.27807 
L 217.074072 360.27807 
L 217.074072 360.27807 
L 216.036313 360.27807 
z
" clip-path="url(#pa56861b9e2)" style="fill: #008000"/>
   </g>
   <g id="patch_121">
    <path d="M 217.333512 360.27807 
L 218.371271 360.27807 
L 218.371271 346.183865 
L 217.333512 346.183865 
z
" clip-path="url(#pa56861b9e2)" style="fill: #008000"/>
   </g>
   <g id="patch_122">
    <path d="M 218.630711 360.27807 
L 219.66847 360.27807 
L 219.66847 355.751785 
L 218.630711 355.751785 
z
" clip-path="url(#pa56861b9e2)" style="fill: #008000"/>
   </g>
   <g id="patch_123">
    <path d="M 219.92791 360.27807 
L 220.965669 360.27807 
L 220.965669 360.27807 
L 219.92791 360.27807 
z
" clip-path="url(#pa56861b9e2)" style="fill: #008000"/>
   </g>
   <g id="patch_124">
    <path d="M 221.225109 360.27807 
L 222.262868 360.27807 
L 222.262868 360.27807 
L 221.225109 360.27807 
z
" clip-path="url(#pa56861b9e2)" style="fill: #008000"/>
   </g>
   <g id="patch_125">
    <path d="M 222.522308 360.27807 
L 223.560067 360.27807 
L 223.560067 360.27807 
L 222.522308 360.27807 
z
" clip-path="url(#pa56861b9e2)" style="fill: #008000"/>
   </g>
   <g id="patch_126">
    <path d="M 223.819507 360.27807 
L 224.857266 360.27807 
L 224.857266 360.27807 
L 223.819507 360.27807 
z
" clip-path="url(#pa56861b9e2)" style="fill: #008000"/>
   </g>
   <g id="patch_127">
    <path d="M 225.116706 360.27807 
L 226.154465 360.27807 
L 226.154465 360.27807 
L 225.116706 360.27807 
z
" clip-path="url(#pa56861b9e2)" style="fill: #008000"/>
   </g>
   <g id="patch_128">
    <path d="M 226.413905 360.27807 
L 227.451664 360.27807 
L 227.451664 329.215417 
L 226.413905 329.215417 
z
" clip-path="url(#pa56861b9e2)" style="fill: #008000"/>
   </g>
   <g id="patch_129">
    <path d="M 227.711103 360.27807 
L 228.748863 360.27807 
L 228.748863 346.136203 
L 227.711103 346.136203 
z
" clip-path="url(#pa56861b9e2)" style="fill: #008000"/>
   </g>
   <g id="patch_130">
    <path d="M 229.008302 360.27807 
L 230.046062 360.27807 
L 230.046062 336.981079 
L 229.008302 336.981079 
z
" clip-path="url(#pa56861b9e2)" style="fill: #008000"/>
   </g>
   <g id="patch_131">
    <path d="M 230.305501 360.27807 
L 231.343261 360.27807 
L 231.343261 360.27807 
L 230.305501 360.27807 
z
" clip-path="url(#pa56861b9e2)" style="fill: #008000"/>
   </g>
   <g id="patch_132">
    <path d="M 231.6027 360.27807 
L 232.64046 360.27807 
L 232.64046 360.27807 
L 231.6027 360.27807 
z
" clip-path="url(#pa56861b9e2)" style="fill: #008000"/>
   </g>
   <g id="patch_133">
    <path d="M 232.899899 360.27807 
L 233.937658 360.27807 
L 233.937658 360.27807 
L 232.899899 360.27807 
z
" clip-path="url(#pa56861b9e2)" style="fill: #008000"/>
   </g>
   <g id="patch_134">
    <path d="M 234.197098 360.27807 
L 235.234857 360.27807 
L 235.234857 351.726096 
L 234.197098 351.726096 
z
" clip-path="url(#pa56861b9e2)" style="fill: #008000"/>
   </g>
   <g id="patch_135">
    <path d="M 235.494297 360.27807 
L 236.532056 360.27807 
L 236.532056 351.726096 
L 235.494297 351.726096 
z
" clip-path="url(#pa56861b9e2)" style="fill: #008000"/>
   </g>
   <g id="patch_136">
    <path d="M 236.791496 360.27807 
L 237.829255 360.27807 
L 237.829255 340.945911 
L 236.791496 340.945911 
z
" clip-path="url(#pa56861b9e2)" style="fill: #008000"/>
   </g>
   <g id="patch_137">
    <path d="M 238.088695 360.27807 
L 239.126454 360.27807 
L 239.126454 338.546254 
L 238.088695 338.546254 
z
" clip-path="url(#pa56861b9e2)" style="fill: #008000"/>
   </g>
   <g id="patch_138">
    <path d="M 239.385894 360.27807 
L 240.423653 360.27807 
L 240.423653 360.27807 
L 239.385894 360.27807 
z
" clip-path="url(#pa56861b9e2)" style="fill: #008000"/>
   </g>
   <g id="patch_139">
    <path d="M 240.683093 360.27807 
L 241.720852 360.27807 
L 241.720852 360.27807 
L 240.683093 360.27807 
z
" clip-path="url(#pa56861b9e2)" style="fill: #008000"/>
   </g>
   <g id="patch_140">
    <path d="M 241.980292 360.27807 
L 243.018051 360.27807 
L 243.018051 360.27807 
L 241.980292 360.27807 
z
" clip-path="url(#pa56861b9e2)" style="fill: #008000"/>
   </g>
   <g id="patch_141">
    <path d="M 243.277491 360.27807 
L 244.31525 360.27807 
L 244.31525 342.384497 
L 243.277491 342.384497 
z
" clip-path="url(#pa56861b9e2)" style="fill: #008000"/>
   </g>
   <g id="patch_142">
    <path d="M 244.57469 360.27807 
L 245.612449 360.27807 
L 245.612449 324.490924 
L 244.57469 324.490924 
z
" clip-path="url(#pa56861b9e2)" style="fill: #008000"/>
   </g>
   <g id="patch_143">
    <path d="M 245.871889 360.27807 
L 246.909648 360.27807 
L 246.909648 351.715254 
L 245.871889 351.715254 
z
" clip-path="url(#pa56861b9e2)" style="fill: #008000"/>
   </g>
   <g id="patch_144">
    <path d="M 247.169088 360.27807 
L 248.206847 360.27807 
L 248.206847 360.27807 
L 247.169088 360.27807 
z
" clip-path="url(#pa56861b9e2)" style="fill: #008000"/>
   </g>
   <g id="patch_145">
    <path d="M 248.466287 360.27807 
L 249.504046 360.27807 
L 249.504046 339.375785 
L 248.466287 339.375785 
z
" clip-path="url(#pa56861b9e2)" style="fill: #008000"/>
   </g>
   <g id="patch_146">
    <path d="M 249.763486 360.27807 
L 250.801245 360.27807 
L 250.801245 360.27807 
L 249.763486 360.27807 
z
" clip-path="url(#pa56861b9e2)" style="fill: #008000"/>
   </g>
   <g id="patch_147">
    <path d="M 251.060685 360.27807 
L 252.098444 360.27807 
L 252.098444 360.27807 
L 251.060685 360.27807 
z
" clip-path="url(#pa56861b9e2)" style="fill: #008000"/>
   </g>
   <g id="patch_148">
    <path d="M 252.357884 360.27807 
L 253.395643 360.27807 
L 253.395643 360.27807 
L 252.357884 360.27807 
z
" clip-path="url(#pa56861b9e2)" style="fill: #008000"/>
   </g>
   <g id="patch_149">
    <path d="M 253.655083 360.27807 
L 254.692842 360.27807 
L 254.692842 312.206692 
L 253.655083 312.206692 
z
" clip-path="url(#pa56861b9e2)" style="fill: #008000"/>
   </g>
   <g id="patch_150">
    <path d="M 254.952282 360.27807 
L 255.990041 360.27807 
L 255.990041 360.27807 
L 254.952282 360.27807 
z
" clip-path="url(#pa56861b9e2)" style="fill: #008000"/>
   </g>
   <g id="patch_151">
    <path d="M 256.249481 360.27807 
L 257.28724 360.27807 
L 257.28724 286.043607 
L 256.249481 286.043607 
z
" clip-path="url(#pa56861b9e2)" style="fill: #008000"/>
   </g>
   <g id="patch_152">
    <path d="M 257.54668 360.27807 
L 258.584439 360.27807 
L 258.584439 342.21153 
L 257.54668 342.21153 
z
" clip-path="url(#pa56861b9e2)" style="fill: #008000"/>
   </g>
   <g id="patch_153">
    <path d="M 258.843879 360.27807 
L 259.881638 360.27807 
L 259.881638 360.27807 
L 258.843879 360.27807 
z
" clip-path="url(#pa56861b9e2)" style="fill: #008000"/>
   </g>
   <g id="patch_154">
    <path d="M 260.141078 360.27807 
L 261.178837 360.27807 
L 261.178837 298.981393 
L 260.141078 298.981393 
z
" clip-path="url(#pa56861b9e2)" style="fill: #008000"/>
   </g>
   <g id="patch_155">
    <path d="M 261.438277 360.27807 
L 262.476036 360.27807 
L 262.476036 360.27807 
L 261.438277 360.27807 
z
" clip-path="url(#pa56861b9e2)" style="fill: #008000"/>
   </g>
   <g id="patch_156">
    <path d="M 262.735475 360.27807 
L 263.773235 360.27807 
L 263.773235 360.27807 
L 262.735475 360.27807 
z
" clip-path="url(#pa56861b9e2)" style="fill: #008000"/>
   </g>
   <g id="patch_157">
    <path d="M 264.032674 360.27807 
L 265.070434 360.27807 
L 265.070434 360.27807 
L 264.032674 360.27807 
z
" clip-path="url(#pa56861b9e2)" style="fill: #008000"/>
   </g>
   <g id="patch_158">
    <path d="M 265.329873 360.27807 
L 266.367633 360.27807 
L 266.367633 227.946289 
L 265.329873 227.946289 
z
" clip-path="url(#pa56861b9e2)" style="fill: #008000"/>
   </g>
   <g id="patch_159">
    <path d="M 266.627072 360.27807 
L 267.664832 360.27807 
L 267.664832 280.844911 
L 266.627072 280.844911 
z
" clip-path="url(#pa56861b9e2)" style="fill: #008000"/>
   </g>
   <g id="patch_160">
    <path d="M 267.924271 360.27807 
L 268.962031 360.27807 
L 268.962031 280.844911 
L 267.924271 280.844911 
z
" clip-path="url(#pa56861b9e2)" style="fill: #008000"/>
   </g>
   <g id="patch_161">
    <path d="M 269.22147 360.27807 
L 270.259229 360.27807 
L 270.259229 360.27807 
L 269.22147 360.27807 
z
" clip-path="url(#pa56861b9e2)" style="fill: #008000"/>
   </g>
   <g id="patch_162">
    <path d="M 270.518669 360.27807 
L 271.556428 360.27807 
L 271.556428 280.844911 
L 270.518669 280.844911 
z
" clip-path="url(#pa56861b9e2)" style="fill: #008000"/>
   </g>
   <g id="patch_163">
    <path d="M 271.815868 360.27807 
L 272.853627 360.27807 
L 272.853627 360.27807 
L 271.815868 360.27807 
z
" clip-path="url(#pa56861b9e2)" style="fill: #008000"/>
   </g>
   <g id="patch_164">
    <path d="M 273.113067 360.27807 
L 274.150826 360.27807 
L 274.150826 360.27807 
L 273.113067 360.27807 
z
" clip-path="url(#pa56861b9e2)" style="fill: #008000"/>
   </g>
   <g id="patch_165">
    <path d="M 274.410266 360.27807 
L 275.448025 360.27807 
L 275.448025 350.930733 
L 274.410266 350.930733 
z
" clip-path="url(#pa56861b9e2)" style="fill: #008000"/>
   </g>
   <g id="patch_166">
    <path d="M 275.707465 360.27807 
L 276.745224 360.27807 
L 276.745224 360.27807 
L 275.707465 360.27807 
z
" clip-path="url(#pa56861b9e2)" style="fill: #008000"/>
   </g>
   <g id="patch_167">
    <path d="M 277.004664 360.27807 
L 278.042423 360.27807 
L 278.042423 360.27807 
L 277.004664 360.27807 
z
" clip-path="url(#pa56861b9e2)" style="fill: #008000"/>
   </g>
   <g id="patch_168">
    <path d="M 278.301863 360.27807 
L 279.339622 360.27807 
L 279.339622 360.27807 
L 278.301863 360.27807 
z
" clip-path="url(#pa56861b9e2)" style="fill: #008000"/>
   </g>
   <g id="patch_169">
    <path d="M 279.599062 360.27807 
L 280.636821 360.27807 
L 280.636821 360.27807 
L 279.599062 360.27807 
z
" clip-path="url(#pa56861b9e2)" style="fill: #008000"/>
   </g>
   <g id="patch_170">
    <path d="M 280.896261 360.27807 
L 281.93402 360.27807 
L 281.93402 360.27807 
L 280.896261 360.27807 
z
" clip-path="url(#pa56861b9e2)" style="fill: #008000"/>
   </g>
   <g id="patch_171">
    <path d="M 282.19346 360.27807 
L 283.231219 360.27807 
L 283.231219 357.255114 
L 282.19346 357.255114 
z
" clip-path="url(#pa56861b9e2)" style="fill: #008000"/>
   </g>
   <g id="patch_172">
    <path d="M 283.490659 360.27807 
L 284.528418 360.27807 
L 284.528418 360.27807 
L 283.490659 360.27807 
z
" clip-path="url(#pa56861b9e2)" style="fill: #008000"/>
   </g>
   <g id="patch_173">
    <path d="M 284.787858 360.27807 
L 285.825617 360.27807 
L 285.825617 360.27807 
L 284.787858 360.27807 
z
" clip-path="url(#pa56861b9e2)" style="fill: #008000"/>
   </g>
   <g id="patch_174">
    <path d="M 286.085057 360.27807 
L 287.122816 360.27807 
L 287.122816 360.27807 
L 286.085057 360.27807 
z
" clip-path="url(#pa56861b9e2)" style="fill: #008000"/>
   </g>
   <g id="patch_175">
    <path d="M 287.382256 360.27807 
L 288.420015 360.27807 
L 288.420015 360.27807 
L 287.382256 360.27807 
z
" clip-path="url(#pa56861b9e2)" style="fill: #008000"/>
   </g>
   <g id="patch_176">
    <path d="M 288.679455 360.27807 
L 289.717214 360.27807 
L 289.717214 360.27807 
L 288.679455 360.27807 
z
" clip-path="url(#pa56861b9e2)" style="fill: #008000"/>
   </g>
   <g id="patch_177">
    <path d="M 289.976654 360.27807 
L 291.014413 360.27807 
L 291.014413 360.27807 
L 289.976654 360.27807 
z
" clip-path="url(#pa56861b9e2)" style="fill: #008000"/>
   </g>
   <g id="patch_178">
    <path d="M 291.273853 360.27807 
L 292.311612 360.27807 
L 292.311612 336.205173 
L 291.273853 336.205173 
z
" clip-path="url(#pa56861b9e2)" style="fill: #008000"/>
   </g>
   <g id="patch_179">
    <path d="M 292.571052 360.27807 
L 293.608811 360.27807 
L 293.608811 345.974163 
L 292.571052 345.974163 
z
" clip-path="url(#pa56861b9e2)" style="fill: #008000"/>
   </g>
   <g id="patch_180">
    <path d="M 293.868251 360.27807 
L 294.90601 360.27807 
L 294.90601 351.543906 
L 293.868251 351.543906 
z
" clip-path="url(#pa56861b9e2)" style="fill: #008000"/>
   </g>
   <g id="patch_181">
    <path d="M 295.16545 360.27807 
L 296.203209 360.27807 
L 296.203209 360.27807 
L 295.16545 360.27807 
z
" clip-path="url(#pa56861b9e2)" style="fill: #008000"/>
   </g>
   <g id="patch_182">
    <path d="M 296.462649 360.27807 
L 297.500408 360.27807 
L 297.500408 274.662958 
L 296.462649 274.662958 
z
" clip-path="url(#pa56861b9e2)" style="fill: #008000"/>
   </g>
   <g id="patch_183">
    <path d="M 297.759847 360.27807 
L 298.797607 360.27807 
L 298.797607 360.27807 
L 297.759847 360.27807 
z
" clip-path="url(#pa56861b9e2)" style="fill: #008000"/>
   </g>
   <g id="patch_184">
    <path d="M 299.057046 360.27807 
L 300.094806 360.27807 
L 300.094806 335.593404 
L 299.057046 335.593404 
z
" clip-path="url(#pa56861b9e2)" style="fill: #008000"/>
   </g>
   <g id="patch_185">
    <path d="M 300.354245 360.27807 
L 301.392005 360.27807 
L 301.392005 293.962584 
L 300.354245 293.962584 
z
" clip-path="url(#pa56861b9e2)" style="fill: #008000"/>
   </g>
   <g id="patch_186">
    <path d="M 301.651444 360.27807 
L 302.689204 360.27807 
L 302.689204 360.27807 
L 301.651444 360.27807 
z
" clip-path="url(#pa56861b9e2)" style="fill: #008000"/>
   </g>
   <g id="patch_187">
    <path d="M 302.948643 360.27807 
L 303.986403 360.27807 
L 303.986403 286.224067 
L 302.948643 286.224067 
z
" clip-path="url(#pa56861b9e2)" style="fill: #008000"/>
   </g>
   <g id="patch_188">
    <path d="M 304.245842 360.27807 
L 305.283601 360.27807 
L 305.283601 293.420346 
L 304.245842 293.420346 
z
" clip-path="url(#pa56861b9e2)" style="fill: #008000"/>
   </g>
   <g id="patch_189">
    <path d="M 305.543041 360.27807 
L 306.5808 360.27807 
L 306.5808 360.27807 
L 305.543041 360.27807 
z
" clip-path="url(#pa56861b9e2)" style="fill: #008000"/>
   </g>
   <g id="patch_190">
    <path d="M 306.84024 360.27807 
L 307.877999 360.27807 
L 307.877999 360.27807 
L 306.84024 360.27807 
z
" clip-path="url(#pa56861b9e2)" style="fill: #008000"/>
   </g>
   <g id="patch_191">
    <path d="M 308.137439 360.27807 
L 309.175198 360.27807 
L 309.175198 360.27807 
L 308.137439 360.27807 
z
" clip-path="url(#pa56861b9e2)" style="fill: #008000"/>
   </g>
   <g id="patch_192">
    <path d="M 309.434638 360.27807 
L 310.472397 360.27807 
L 310.472397 360.27807 
L 309.434638 360.27807 
z
" clip-path="url(#pa56861b9e2)" style="fill: #008000"/>
   </g>
   <g id="patch_193">
    <path d="M 310.731837 360.27807 
L 311.769596 360.27807 
L 311.769596 360.27807 
L 310.731837 360.27807 
z
" clip-path="url(#pa56861b9e2)" style="fill: #008000"/>
   </g>
   <g id="patch_194">
    <path d="M 312.029036 360.27807 
L 313.066795 360.27807 
L 313.066795 360.27807 
L 312.029036 360.27807 
z
" clip-path="url(#pa56861b9e2)" style="fill: #008000"/>
   </g>
   <g id="patch_195">
    <path d="M 313.326235 360.27807 
L 314.363994 360.27807 
L 314.363994 360.27807 
L 313.326235 360.27807 
z
" clip-path="url(#pa56861b9e2)" style="fill: #008000"/>
   </g>
   <g id="patch_196">
    <path d="M 314.623434 360.27807 
L 315.661193 360.27807 
L 315.661193 360.27807 
L 314.623434 360.27807 
z
" clip-path="url(#pa56861b9e2)" style="fill: #008000"/>
   </g>
   <g id="patch_197">
    <path d="M 315.920633 360.27807 
L 316.958392 360.27807 
L 316.958392 360.27807 
L 315.920633 360.27807 
z
" clip-path="url(#pa56861b9e2)" style="fill: #008000"/>
   </g>
   <g id="patch_198">
    <path d="M 317.217832 360.27807 
L 318.255591 360.27807 
L 318.255591 360.27807 
L 317.217832 360.27807 
z
" clip-path="url(#pa56861b9e2)" style="fill: #008000"/>
   </g>
   <g id="patch_199">
    <path d="M 318.515031 360.27807 
L 319.55279 360.27807 
L 319.55279 189.007797 
L 318.515031 189.007797 
z
" clip-path="url(#pa56861b9e2)" style="fill: #008000"/>
   </g>
   <g id="patch_200">
    <path d="M 319.81223 360.27807 
L 320.849989 360.27807 
L 320.849989 360.27807 
L 319.81223 360.27807 
z
" clip-path="url(#pa56861b9e2)" style="fill: #008000"/>
   </g>
   <g id="patch_201">
    <path d="M 321.109429 360.27807 
L 322.147188 360.27807 
L 322.147188 360.27807 
L 321.109429 360.27807 
z
" clip-path="url(#pa56861b9e2)" style="fill: #008000"/>
   </g>
   <g id="patch_202">
    <path d="M 322.406628 360.27807 
L 323.444387 360.27807 
L 323.444387 360.27807 
L 322.406628 360.27807 
z
" clip-path="url(#pa56861b9e2)" style="fill: #008000"/>
   </g>
   <g id="patch_203">
    <path d="M 323.703827 360.27807 
L 324.741586 360.27807 
L 324.741586 360.27807 
L 323.703827 360.27807 
z
" clip-path="url(#pa56861b9e2)" style="fill: #008000"/>
   </g>
   <g id="patch_204">
    <path d="M 325.001026 360.27807 
L 326.038785 360.27807 
L 326.038785 360.27807 
L 325.001026 360.27807 
z
" clip-path="url(#pa56861b9e2)" style="fill: #008000"/>
   </g>
   <g id="patch_205">
    <path d="M 326.298225 360.27807 
L 327.335984 360.27807 
L 327.335984 360.27807 
L 326.298225 360.27807 
z
" clip-path="url(#pa56861b9e2)" style="fill: #008000"/>
   </g>
   <g id="patch_206">
    <path d="M 327.595424 360.27807 
L 328.633183 360.27807 
L 328.633183 360.27807 
L 327.595424 360.27807 
z
" clip-path="url(#pa56861b9e2)" style="fill: #008000"/>
   </g>
   <g id="patch_207">
    <path d="M 328.892623 360.27807 
L 329.930382 360.27807 
L 329.930382 360.27807 
L 328.892623 360.27807 
z
" clip-path="url(#pa56861b9e2)" style="fill: #008000"/>
   </g>
   <g id="patch_208">
    <path d="M 330.189822 360.27807 
L 331.227581 360.27807 
L 331.227581 360.27807 
L 330.189822 360.27807 
z
" clip-path="url(#pa56861b9e2)" style="fill: #008000"/>
   </g>
   <g id="patch_209">
    <path d="M 331.487021 360.27807 
L 332.52478 360.27807 
L 332.52478 360.27807 
L 331.487021 360.27807 
z
" clip-path="url(#pa56861b9e2)" style="fill: #008000"/>
   </g>
   <g id="patch_210">
    <path d="M 332.784219 360.27807 
L 333.821979 360.27807 
L 333.821979 360.27807 
L 332.784219 360.27807 
z
" clip-path="url(#pa56861b9e2)" style="fill: #008000"/>
   </g>
   <g id="patch_211">
    <path d="M 334.081418 360.27807 
L 335.119178 360.27807 
L 335.119178 360.27807 
L 334.081418 360.27807 
z
" clip-path="url(#pa56861b9e2)" style="fill: #008000"/>
   </g>
   <g id="patch_212">
    <path d="M 335.378617 360.27807 
L 336.416377 360.27807 
L 336.416377 360.27807 
L 335.378617 360.27807 
z
" clip-path="url(#pa56861b9e2)" style="fill: #008000"/>
   </g>
   <g id="patch_213">
    <path d="M 336.675816 360.27807 
L 337.713576 360.27807 
L 337.713576 360.27807 
L 336.675816 360.27807 
z
" clip-path="url(#pa56861b9e2)" style="fill: #008000"/>
   </g>
   <g id="patch_214">
    <path d="M 337.973015 360.27807 
L 339.010775 360.27807 
L 339.010775 360.27807 
L 337.973015 360.27807 
z
" clip-path="url(#pa56861b9e2)" style="fill: #008000"/>
   </g>
   <g id="patch_215">
    <path d="M 339.270214 360.27807 
L 340.307973 360.27807 
L 340.307973 360.27807 
L 339.270214 360.27807 
z
" clip-path="url(#pa56861b9e2)" style="fill: #008000"/>
   </g>
   <g id="patch_216">
    <path d="M 340.567413 360.27807 
L 341.605172 360.27807 
L 341.605172 360.27807 
L 340.567413 360.27807 
z
" clip-path="url(#pa56861b9e2)" style="fill: #008000"/>
   </g>
   <g id="patch_217">
    <path d="M 341.864612 360.27807 
L 342.902371 360.27807 
L 342.902371 360.27807 
L 341.864612 360.27807 
z
" clip-path="url(#pa56861b9e2)" style="fill: #008000"/>
   </g>
   <g id="patch_218">
    <path d="M 343.161811 360.27807 
L 344.19957 360.27807 
L 344.19957 360.27807 
L 343.161811 360.27807 
z
" clip-path="url(#pa56861b9e2)" style="fill: #008000"/>
   </g>
   <g id="patch_219">
    <path d="M 344.45901 360.27807 
L 345.496769 360.27807 
L 345.496769 360.27807 
L 344.45901 360.27807 
z
" clip-path="url(#pa56861b9e2)" style="fill: #008000"/>
   </g>
   <g id="patch_220">
    <path d="M 345.756209 360.27807 
L 346.793968 360.27807 
L 346.793968 360.27807 
L 345.756209 360.27807 
z
" clip-path="url(#pa56861b9e2)" style="fill: #008000"/>
   </g>
   <g id="patch_221">
    <path d="M 347.053408 360.27807 
L 348.091167 360.27807 
L 348.091167 360.27807 
L 347.053408 360.27807 
z
" clip-path="url(#pa56861b9e2)" style="fill: #008000"/>
   </g>
   <g id="patch_222">
    <path d="M 348.350607 360.27807 
L 349.388366 360.27807 
L 349.388366 360.27807 
L 348.350607 360.27807 
z
" clip-path="url(#pa56861b9e2)" style="fill: #008000"/>
   </g>
   <g id="patch_223">
    <path d="M 349.647806 360.27807 
L 350.685565 360.27807 
L 350.685565 360.27807 
L 349.647806 360.27807 
z
" clip-path="url(#pa56861b9e2)" style="fill: #008000"/>
   </g>
   <g id="patch_224">
    <path d="M 350.945005 360.27807 
L 351.982764 360.27807 
L 351.982764 360.27807 
L 350.945005 360.27807 
z
" clip-path="url(#pa56861b9e2)" style="fill: #008000"/>
   </g>
   <g id="patch_225">
    <path d="M 352.242204 360.27807 
L 353.279963 360.27807 
L 353.279963 360.27807 
L 352.242204 360.27807 
z
" clip-path="url(#pa56861b9e2)" style="fill: #008000"/>
   </g>
   <g id="patch_226">
    <path d="M 353.539403 360.27807 
L 354.577162 360.27807 
L 354.577162 360.27807 
L 353.539403 360.27807 
z
" clip-path="url(#pa56861b9e2)" style="fill: #008000"/>
   </g>
   <g id="patch_227">
    <path d="M 354.836602 360.27807 
L 355.874361 360.27807 
L 355.874361 360.27807 
L 354.836602 360.27807 
z
" clip-path="url(#pa56861b9e2)" style="fill: #008000"/>
   </g>
   <g id="patch_228">
    <path d="M 356.133801 360.27807 
L 357.17156 360.27807 
L 357.17156 360.27807 
L 356.133801 360.27807 
z
" clip-path="url(#pa56861b9e2)" style="fill: #008000"/>
   </g>
   <g id="patch_229">
    <path d="M 357.431 360.27807 
L 358.468759 360.27807 
L 358.468759 360.27807 
L 357.431 360.27807 
z
" clip-path="url(#pa56861b9e2)" style="fill: #008000"/>
   </g>
   <g id="patch_230">
    <path d="M 358.728199 360.27807 
L 359.765958 360.27807 
L 359.765958 360.27807 
L 358.728199 360.27807 
z
" clip-path="url(#pa56861b9e2)" style="fill: #008000"/>
   </g>
   <g id="patch_231">
    <path d="M 360.025398 360.27807 
L 361.063157 360.27807 
L 361.063157 360.27807 
L 360.025398 360.27807 
z
" clip-path="url(#pa56861b9e2)" style="fill: #008000"/>
   </g>
   <g id="patch_232">
    <path d="M 361.322597 360.27807 
L 362.360356 360.27807 
L 362.360356 360.27807 
L 361.322597 360.27807 
z
" clip-path="url(#pa56861b9e2)" style="fill: #008000"/>
   </g>
   <g id="patch_233">
    <path d="M 362.619796 360.27807 
L 363.657555 360.27807 
L 363.657555 360.27807 
L 362.619796 360.27807 
z
" clip-path="url(#pa56861b9e2)" style="fill: #008000"/>
   </g>
   <g id="patch_234">
    <path d="M 363.916995 360.27807 
L 364.954754 360.27807 
L 364.954754 360.27807 
L 363.916995 360.27807 
z
" clip-path="url(#pa56861b9e2)" style="fill: #008000"/>
   </g>
   <g id="patch_235">
    <path d="M 365.214194 360.27807 
L 366.251953 360.27807 
L 366.251953 360.27807 
L 365.214194 360.27807 
z
" clip-path="url(#pa56861b9e2)" style="fill: #008000"/>
   </g>
   <g id="patch_236">
    <path d="M 366.511393 360.27807 
L 367.549152 360.27807 
L 367.549152 360.27807 
L 366.511393 360.27807 
z
" clip-path="url(#pa56861b9e2)" style="fill: #008000"/>
   </g>
   <g id="patch_237">
    <path d="M 367.808592 360.27807 
L 368.846351 360.27807 
L 368.846351 360.27807 
L 367.808592 360.27807 
z
" clip-path="url(#pa56861b9e2)" style="fill: #008000"/>
   </g>
   <g id="patch_238">
    <path d="M 369.10579 360.27807 
L 370.14355 360.27807 
L 370.14355 360.27807 
L 369.10579 360.27807 
z
" clip-path="url(#pa56861b9e2)" style="fill: #008000"/>
   </g>
   <g id="patch_239">
    <path d="M 370.402989 360.27807 
L 371.440749 360.27807 
L 371.440749 360.27807 
L 370.402989 360.27807 
z
" clip-path="url(#pa56861b9e2)" style="fill: #008000"/>
   </g>
   <g id="patch_240">
    <path d="M 371.700188 360.27807 
L 372.737948 360.27807 
L 372.737948 38.411456 
L 371.700188 38.411456 
z
" clip-path="url(#pa56861b9e2)" style="fill: #008000"/>
   </g>
   <g id="patch_241">
    <path d="M 372.997387 360.27807 
L 374.035147 360.27807 
L 374.035147 360.27807 
L 372.997387 360.27807 
z
" clip-path="url(#pa56861b9e2)" style="fill: #008000"/>
   </g>
   <g id="patch_242">
    <path d="M 374.294586 360.27807 
L 375.332345 360.27807 
L 375.332345 360.27807 
L 374.294586 360.27807 
z
" clip-path="url(#pa56861b9e2)" style="fill: #008000"/>
   </g>
   <g id="patch_243">
    <path d="M 375.591785 360.27807 
L 376.629544 360.27807 
L 376.629544 360.27807 
L 375.591785 360.27807 
z
" clip-path="url(#pa56861b9e2)" style="fill: #008000"/>
   </g>
   <g id="patch_244">
    <path d="M 376.888984 360.27807 
L 377.926743 360.27807 
L 377.926743 360.27807 
L 376.888984 360.27807 
z
" clip-path="url(#pa56861b9e2)" style="fill: #008000"/>
   </g>
   <g id="patch_245">
    <path d="M 378.186183 360.27807 
L 379.223942 360.27807 
L 379.223942 360.27807 
L 378.186183 360.27807 
z
" clip-path="url(#pa56861b9e2)" style="fill: #008000"/>
   </g>
   <g id="patch_246">
    <path d="M 379.483382 360.27807 
L 380.521141 360.27807 
L 380.521141 360.27807 
L 379.483382 360.27807 
z
" clip-path="url(#pa56861b9e2)" style="fill: #008000"/>
   </g>
   <g id="patch_247">
    <path d="M 380.780581 360.27807 
L 381.81834 360.27807 
L 381.81834 360.27807 
L 380.780581 360.27807 
z
" clip-path="url(#pa56861b9e2)" style="fill: #008000"/>
   </g>
   <g id="patch_248">
    <path d="M 382.07778 360.27807 
L 383.115539 360.27807 
L 383.115539 360.27807 
L 382.07778 360.27807 
z
" clip-path="url(#pa56861b9e2)" style="fill: #008000"/>
   </g>
   <g id="patch_249">
    <path d="M 383.374979 360.27807 
L 384.412738 360.27807 
L 384.412738 360.27807 
L 383.374979 360.27807 
z
" clip-path="url(#pa56861b9e2)" style="fill: #008000"/>
   </g>
   <g id="patch_250">
    <path d="M 384.672178 360.27807 
L 385.709937 360.27807 
L 385.709937 360.27807 
L 384.672178 360.27807 
z
" clip-path="url(#pa56861b9e2)" style="fill: #008000"/>
   </g>
   <g id="patch_251">
    <path d="M 385.969377 360.27807 
L 387.007136 360.27807 
L 387.007136 360.27807 
L 385.969377 360.27807 
z
" clip-path="url(#pa56861b9e2)" style="fill: #008000"/>
   </g>
   <g id="patch_252">
    <path d="M 387.266576 360.27807 
L 388.304335 360.27807 
L 388.304335 360.27807 
L 387.266576 360.27807 
z
" clip-path="url(#pa56861b9e2)" style="fill: #008000"/>
   </g>
   <g id="patch_253">
    <path d="M 388.563775 360.27807 
L 389.601534 360.27807 
L 389.601534 356.919787 
L 388.563775 356.919787 
z
" clip-path="url(#pa56861b9e2)" style="fill: #008000"/>
   </g>
   <g id="patch_254">
    <path d="M 389.860974 360.27807 
L 390.898733 360.27807 
L 390.898733 334.70642 
L 389.860974 334.70642 
z
" clip-path="url(#pa56861b9e2)" style="fill: #008000"/>
   </g>
   <g id="patch_255">
    <path d="M 391.158173 360.27807 
L 392.195932 360.27807 
L 392.195932 360.27807 
L 391.158173 360.27807 
z
" clip-path="url(#pa56861b9e2)" style="fill: #008000"/>
   </g>
   <g id="patch_256">
    <path d="M 392.455372 360.27807 
L 393.493131 360.27807 
L 393.493131 360.27807 
L 392.455372 360.27807 
z
" clip-path="url(#pa56861b9e2)" style="fill: #008000"/>
   </g>
   <g id="patch_257">
    <path d="M 393.752571 360.27807 
L 394.79033 360.27807 
L 394.79033 360.27807 
L 393.752571 360.27807 
z
" clip-path="url(#pa56861b9e2)" style="fill: #008000"/>
   </g>
   <g id="patch_258">
    <path d="M 395.04977 360.27807 
L 396.087529 360.27807 
L 396.087529 360.27807 
L 395.04977 360.27807 
z
" clip-path="url(#pa56861b9e2)" style="fill: #008000"/>
   </g>
   <g id="patch_259">
    <path d="M 396.346969 360.27807 
L 397.384728 360.27807 
L 397.384728 360.27807 
L 396.346969 360.27807 
z
" clip-path="url(#pa56861b9e2)" style="fill: #008000"/>
   </g>
   <g id="patch_260">
    <path d="M 397.644168 360.27807 
L 398.681927 360.27807 
L 398.681927 360.27807 
L 397.644168 360.27807 
z
" clip-path="url(#pa56861b9e2)" style="fill: #008000"/>
   </g>
   <g id="patch_261">
    <path d="M 398.941367 360.27807 
L 399.979126 360.27807 
L 399.979126 346.631604 
L 398.941367 346.631604 
z
" clip-path="url(#pa56861b9e2)" style="fill: #008000"/>
   </g>
   <g id="patch_262">
    <path d="M 400.238566 360.27807 
L 401.276325 360.27807 
L 401.276325 297.808251 
L 400.238566 297.808251 
z
" clip-path="url(#pa56861b9e2)" style="fill: #008000"/>
   </g>
   <g id="patch_263">
    <path d="M 401.535765 360.27807 
L 402.573524 360.27807 
L 402.573524 343.412359 
L 401.535765 343.412359 
z
" clip-path="url(#pa56861b9e2)" style="fill: #008000"/>
   </g>
   <g id="patch_264">
    <path d="M 402.832964 360.27807 
L 403.870723 360.27807 
L 403.870723 360.27807 
L 402.832964 360.27807 
z
" clip-path="url(#pa56861b9e2)" style="fill: #008000"/>
   </g>
   <g id="patch_265">
    <path d="M 404.130162 360.27807 
L 405.167922 360.27807 
L 405.167922 297.808251 
L 404.130162 297.808251 
z
" clip-path="url(#pa56861b9e2)" style="fill: #008000"/>
   </g>
   <g id="patch_266">
    <path d="M 405.427361 360.27807 
L 406.465121 360.27807 
L 406.465121 360.27807 
L 405.427361 360.27807 
z
" clip-path="url(#pa56861b9e2)" style="fill: #008000"/>
   </g>
   <g id="patch_267">
    <path d="M 406.72456 360.27807 
L 407.76232 360.27807 
L 407.76232 360.27807 
L 406.72456 360.27807 
z
" clip-path="url(#pa56861b9e2)" style="fill: #008000"/>
   </g>
   <g id="patch_268">
    <path d="M 408.021759 360.27807 
L 409.059519 360.27807 
L 409.059519 360.27807 
L 408.021759 360.27807 
z
" clip-path="url(#pa56861b9e2)" style="fill: #008000"/>
   </g>
   <g id="patch_269">
    <path d="M 409.318958 360.27807 
L 410.356718 360.27807 
L 410.356718 360.27807 
L 409.318958 360.27807 
z
" clip-path="url(#pa56861b9e2)" style="fill: #008000"/>
   </g>
   <g id="patch_270">
    <path d="M 410.616157 360.27807 
L 411.653916 360.27807 
L 411.653916 360.27807 
L 410.616157 360.27807 
z
" clip-path="url(#pa56861b9e2)" style="fill: #008000"/>
   </g>
   <g id="patch_271">
    <path d="M 411.913356 360.27807 
L 412.951115 360.27807 
L 412.951115 272.841584 
L 411.913356 272.841584 
z
" clip-path="url(#pa56861b9e2)" style="fill: #008000"/>
   </g>
   <g id="patch_272">
    <path d="M 413.210555 360.27807 
L 414.248314 360.27807 
L 414.248314 360.27807 
L 413.210555 360.27807 
z
" clip-path="url(#pa56861b9e2)" style="fill: #008000"/>
   </g>
   <g id="patch_273">
    <path d="M 414.507754 360.27807 
L 415.545513 360.27807 
L 415.545513 360.27807 
L 414.507754 360.27807 
z
" clip-path="url(#pa56861b9e2)" style="fill: #008000"/>
   </g>
   <g id="patch_274">
    <path d="M 415.804953 360.27807 
L 416.842712 360.27807 
L 416.842712 360.27807 
L 415.804953 360.27807 
z
" clip-path="url(#pa56861b9e2)" style="fill: #008000"/>
   </g>
   <g id="patch_275">
    <path d="M 417.102152 360.27807 
L 418.139911 360.27807 
L 418.139911 360.27807 
L 417.102152 360.27807 
z
" clip-path="url(#pa56861b9e2)" style="fill: #008000"/>
   </g>
   <g id="patch_276">
    <path d="M 418.399351 360.27807 
L 419.43711 360.27807 
L 419.43711 360.27807 
L 418.399351 360.27807 
z
" clip-path="url(#pa56861b9e2)" style="fill: #008000"/>
   </g>
   <g id="patch_277">
    <path d="M 419.69655 360.27807 
L 420.734309 360.27807 
L 420.734309 360.27807 
L 419.69655 360.27807 
z
" clip-path="url(#pa56861b9e2)" style="fill: #008000"/>
   </g>
   <g id="patch_278">
    <path d="M 420.993749 360.27807 
L 422.031508 360.27807 
L 422.031508 339.027877 
L 420.993749 339.027877 
z
" clip-path="url(#pa56861b9e2)" style="fill: #008000"/>
   </g>
   <g id="patch_279">
    <path d="M 422.290948 360.27807 
L 423.328707 360.27807 
L 423.328707 360.27807 
L 422.290948 360.27807 
z
" clip-path="url(#pa56861b9e2)" style="fill: #008000"/>
   </g>
   <g id="patch_280">
    <path d="M 423.588147 360.27807 
L 424.625906 360.27807 
L 424.625906 360.27807 
L 423.588147 360.27807 
z
" clip-path="url(#pa56861b9e2)" style="fill: #008000"/>
   </g>
   <g id="patch_281">
    <path d="M 424.885346 360.27807 
L 425.923105 360.27807 
L 425.923105 360.27807 
L 424.885346 360.27807 
z
" clip-path="url(#pa56861b9e2)" style="fill: #008000"/>
   </g>
   <g id="patch_282">
    <path d="M 426.182545 360.27807 
L 427.220304 360.27807 
L 427.220304 360.27807 
L 426.182545 360.27807 
z
" clip-path="url(#pa56861b9e2)" style="fill: #008000"/>
   </g>
   <g id="patch_283">
    <path d="M 427.479744 360.27807 
L 428.517503 360.27807 
L 428.517503 353.560572 
L 427.479744 353.560572 
z
" clip-path="url(#pa56861b9e2)" style="fill: #008000"/>
   </g>
   <g id="patch_284">
    <path d="M 428.776943 360.27807 
L 429.814702 360.27807 
L 429.814702 360.27807 
L 428.776943 360.27807 
z
" clip-path="url(#pa56861b9e2)" style="fill: #008000"/>
   </g>
   <g id="patch_285">
    <path d="M 430.074142 360.27807 
L 431.111901 360.27807 
L 431.111901 360.27807 
L 430.074142 360.27807 
z
" clip-path="url(#pa56861b9e2)" style="fill: #008000"/>
   </g>
   <g id="patch_286">
    <path d="M 431.371341 360.27807 
L 432.4091 360.27807 
L 432.4091 356.663346 
L 431.371341 356.663346 
z
" clip-path="url(#pa56861b9e2)" style="fill: #008000"/>
   </g>
   <g id="patch_287">
    <path d="M 432.66854 360.27807 
L 433.706299 360.27807 
L 433.706299 360.27807 
L 432.66854 360.27807 
z
" clip-path="url(#pa56861b9e2)" style="fill: #008000"/>
   </g>
   <g id="patch_288">
    <path d="M 433.965739 360.27807 
L 435.003498 360.27807 
L 435.003498 360.27807 
L 433.965739 360.27807 
z
" clip-path="url(#pa56861b9e2)" style="fill: #008000"/>
   </g>
   <g id="patch_289">
    <path d="M 435.262938 360.27807 
L 436.300697 360.27807 
L 436.300697 360.27807 
L 435.262938 360.27807 
z
" clip-path="url(#pa56861b9e2)" style="fill: #008000"/>
   </g>
   <g id="patch_290">
    <path d="M 436.560137 360.27807 
L 437.597896 360.27807 
L 437.597896 360.27807 
L 436.560137 360.27807 
z
" clip-path="url(#pa56861b9e2)" style="fill: #008000"/>
   </g>
   <g id="patch_291">
    <path d="M 437.857336 360.27807 
L 438.895095 360.27807 
L 438.895095 360.27807 
L 437.857336 360.27807 
z
" clip-path="url(#pa56861b9e2)" style="fill: #008000"/>
   </g>
   <g id="patch_292">
    <path d="M 439.154534 360.27807 
L 440.192294 360.27807 
L 440.192294 360.27807 
L 439.154534 360.27807 
z
" clip-path="url(#pa56861b9e2)" style="fill: #008000"/>
   </g>
   <g id="patch_293">
    <path d="M 440.451733 360.27807 
L 441.489493 360.27807 
L 441.489493 360.27807 
L 440.451733 360.27807 
z
" clip-path="url(#pa56861b9e2)" style="fill: #008000"/>
   </g>
   <g id="patch_294">
    <path d="M 441.748932 360.27807 
L 442.786692 360.27807 
L 442.786692 317.413876 
L 441.748932 317.413876 
z
" clip-path="url(#pa56861b9e2)" style="fill: #008000"/>
   </g>
   <g id="patch_295">
    <path d="M 443.046131 360.27807 
L 444.083891 360.27807 
L 444.083891 360.27807 
L 443.046131 360.27807 
z
" clip-path="url(#pa56861b9e2)" style="fill: #008000"/>
   </g>
   <g id="patch_296">
    <path d="M 444.34333 360.27807 
L 445.38109 360.27807 
L 445.38109 360.27807 
L 444.34333 360.27807 
z
" clip-path="url(#pa56861b9e2)" style="fill: #008000"/>
   </g>
   <g id="patch_297">
    <path d="M 445.640529 360.27807 
L 446.678288 360.27807 
L 446.678288 360.27807 
L 445.640529 360.27807 
z
" clip-path="url(#pa56861b9e2)" style="fill: #008000"/>
   </g>
   <g id="patch_298">
    <path d="M 446.937728 360.27807 
L 447.975487 360.27807 
L 447.975487 360.27807 
L 446.937728 360.27807 
z
" clip-path="url(#pa56861b9e2)" style="fill: #008000"/>
   </g>
   <g id="patch_299">
    <path d="M 448.234927 360.27807 
L 449.272686 360.27807 
L 449.272686 360.27807 
L 448.234927 360.27807 
z
" clip-path="url(#pa56861b9e2)" style="fill: #008000"/>
   </g>
   <g id="patch_300">
    <path d="M 449.532126 360.27807 
L 450.569885 360.27807 
L 450.569885 233.932208 
L 449.532126 233.932208 
z
" clip-path="url(#pa56861b9e2)" style="fill: #008000"/>
   </g>
   <g id="patch_301">
    <path d="M 450.829325 360.27807 
L 451.867084 360.27807 
L 451.867084 360.27807 
L 450.829325 360.27807 
z
" clip-path="url(#pa56861b9e2)" style="fill: #008000"/>
   </g>
   <g id="patch_302">
    <path d="M 452.126524 360.27807 
L 453.164283 360.27807 
L 453.164283 360.27807 
L 452.126524 360.27807 
z
" clip-path="url(#pa56861b9e2)" style="fill: #008000"/>
   </g>
   <g id="patch_303">
    <path d="M 453.423723 360.27807 
L 454.461482 360.27807 
L 454.461482 360.27807 
L 453.423723 360.27807 
z
" clip-path="url(#pa56861b9e2)" style="fill: #008000"/>
   </g>
   <g id="patch_304">
    <path d="M 454.720922 360.27807 
L 455.758681 360.27807 
L 455.758681 360.27807 
L 454.720922 360.27807 
z
" clip-path="url(#pa56861b9e2)" style="fill: #008000"/>
   </g>
   <g id="patch_305">
    <path d="M 456.018121 360.27807 
L 457.05588 360.27807 
L 457.05588 360.27807 
L 456.018121 360.27807 
z
" clip-path="url(#pa56861b9e2)" style="fill: #008000"/>
   </g>
   <g id="patch_306">
    <path d="M 457.31532 360.27807 
L 458.353079 360.27807 
L 458.353079 360.27807 
L 457.31532 360.27807 
z
" clip-path="url(#pa56861b9e2)" style="fill: #008000"/>
   </g>
   <g id="patch_307">
    <path d="M 458.612519 360.27807 
L 459.650278 360.27807 
L 459.650278 360.27807 
L 458.612519 360.27807 
z
" clip-path="url(#pa56861b9e2)" style="fill: #008000"/>
   </g>
   <g id="patch_308">
    <path d="M 459.909718 360.27807 
L 460.947477 360.27807 
L 460.947477 360.27807 
L 459.909718 360.27807 
z
" clip-path="url(#pa56861b9e2)" style="fill: #008000"/>
   </g>
   <g id="patch_309">
    <path d="M 461.206917 360.27807 
L 462.244676 360.27807 
L 462.244676 360.27807 
L 461.206917 360.27807 
z
" clip-path="url(#pa56861b9e2)" style="fill: #008000"/>
   </g>
   <g id="patch_310">
    <path d="M 462.504116 360.27807 
L 463.541875 360.27807 
L 463.541875 357.977362 
L 462.504116 357.977362 
z
" clip-path="url(#pa56861b9e2)" style="fill: #008000"/>
   </g>
   <g id="patch_311">
    <path d="M 463.801315 360.27807 
L 464.839074 360.27807 
L 464.839074 306.164808 
L 463.801315 306.164808 
z
" clip-path="url(#pa56861b9e2)" style="fill: #008000"/>
   </g>
   <g id="patch_312">
    <path d="M 465.098514 360.27807 
L 466.136273 360.27807 
L 466.136273 360.27807 
L 465.098514 360.27807 
z
" clip-path="url(#pa56861b9e2)" style="fill: #008000"/>
   </g>
   <g id="patch_313">
    <path d="M 466.395713 360.27807 
L 467.433472 360.27807 
L 467.433472 360.27807 
L 466.395713 360.27807 
z
" clip-path="url(#pa56861b9e2)" style="fill: #008000"/>
   </g>
   <g id="patch_314">
    <path d="M 467.692912 360.27807 
L 468.730671 360.27807 
L 468.730671 360.27807 
L 467.692912 360.27807 
z
" clip-path="url(#pa56861b9e2)" style="fill: #008000"/>
   </g>
   <g id="patch_315">
    <path d="M 468.990111 360.27807 
L 470.02787 360.27807 
L 470.02787 360.27807 
L 468.990111 360.27807 
z
" clip-path="url(#pa56861b9e2)" style="fill: #008000"/>
   </g>
   <g id="patch_316">
    <path d="M 470.28731 360.27807 
L 471.325069 360.27807 
L 471.325069 360.27807 
L 470.28731 360.27807 
z
" clip-path="url(#pa56861b9e2)" style="fill: #008000"/>
   </g>
   <g id="patch_317">
    <path d="M 471.584509 360.27807 
L 472.622268 360.27807 
L 472.622268 360.27807 
L 471.584509 360.27807 
z
" clip-path="url(#pa56861b9e2)" style="fill: #008000"/>
   </g>
   <g id="patch_318">
    <path d="M 472.881708 360.27807 
L 473.919467 360.27807 
L 473.919467 360.27807 
L 472.881708 360.27807 
z
" clip-path="url(#pa56861b9e2)" style="fill: #008000"/>
   </g>
   <g id="patch_319">
    <path d="M 474.178906 360.27807 
L 475.216666 360.27807 
L 475.216666 360.27807 
L 474.178906 360.27807 
z
" clip-path="url(#pa56861b9e2)" style="fill: #008000"/>
   </g>
   <g id="patch_320">
    <path d="M 475.476105 360.27807 
L 476.513865 360.27807 
L 476.513865 360.27807 
L 475.476105 360.27807 
z
" clip-path="url(#pa56861b9e2)" style="fill: #008000"/>
   </g>
   <g id="patch_321">
    <path d="M 476.773304 360.27807 
L 477.811064 360.27807 
L 477.811064 353.629031 
L 476.773304 353.629031 
z
" clip-path="url(#pa56861b9e2)" style="fill: #008000"/>
   </g>
   <g id="patch_322">
    <path d="M 478.070503 360.27807 
L 479.108263 360.27807 
L 479.108263 360.27807 
L 478.070503 360.27807 
z
" clip-path="url(#pa56861b9e2)" style="fill: #008000"/>
   </g>
   <g id="patch_323">
    <path d="M 479.367702 360.27807 
L 480.405462 360.27807 
L 480.405462 360.27807 
L 479.367702 360.27807 
z
" clip-path="url(#pa56861b9e2)" style="fill: #008000"/>
   </g>
   <g id="patch_324">
    <path d="M 480.664901 360.27807 
L 481.70266 360.27807 
L 481.70266 330.322839 
L 480.664901 330.322839 
z
" clip-path="url(#pa56861b9e2)" style="fill: #008000"/>
   </g>
   <g id="patch_325">
    <path d="M 481.9621 360.27807 
L 482.999859 360.27807 
L 482.999859 360.27807 
L 481.9621 360.27807 
z
" clip-path="url(#pa56861b9e2)" style="fill: #008000"/>
   </g>
   <g id="patch_326">
    <path d="M 483.259299 360.27807 
L 484.297058 360.27807 
L 484.297058 360.27807 
L 483.259299 360.27807 
z
" clip-path="url(#pa56861b9e2)" style="fill: #008000"/>
   </g>
   <g id="patch_327">
    <path d="M 484.556498 360.27807 
L 485.594257 360.27807 
L 485.594257 360.27807 
L 484.556498 360.27807 
z
" clip-path="url(#pa56861b9e2)" style="fill: #008000"/>
   </g>
   <g id="patch_328">
    <path d="M 485.853697 360.27807 
L 486.891456 360.27807 
L 486.891456 360.27807 
L 485.853697 360.27807 
z
" clip-path="url(#pa56861b9e2)" style="fill: #008000"/>
   </g>
   <g id="patch_329">
    <path d="M 487.150896 360.27807 
L 488.188655 360.27807 
L 488.188655 360.27807 
L 487.150896 360.27807 
z
" clip-path="url(#pa56861b9e2)" style="fill: #008000"/>
   </g>
   <g id="patch_330">
    <path d="M 488.448095 360.27807 
L 489.485854 360.27807 
L 489.485854 356.495306 
L 488.448095 356.495306 
z
" clip-path="url(#pa56861b9e2)" style="fill: #008000"/>
   </g>
   <g id="patch_331">
    <path d="M 489.745294 360.27807 
L 490.783053 360.27807 
L 490.783053 360.27807 
L 489.745294 360.27807 
z
" clip-path="url(#pa56861b9e2)" style="fill: #008000"/>
   </g>
   <g id="patch_332">
    <path d="M 491.042493 360.27807 
L 492.080252 360.27807 
L 492.080252 360.27807 
L 491.042493 360.27807 
z
" clip-path="url(#pa56861b9e2)" style="fill: #008000"/>
   </g>
   <g id="patch_333">
    <path d="M 492.339692 360.27807 
L 493.377451 360.27807 
L 493.377451 360.27807 
L 492.339692 360.27807 
z
" clip-path="url(#pa56861b9e2)" style="fill: #008000"/>
   </g>
   <g id="patch_334">
    <path d="M 493.636891 360.27807 
L 494.67465 360.27807 
L 494.67465 360.27807 
L 493.636891 360.27807 
z
" clip-path="url(#pa56861b9e2)" style="fill: #008000"/>
   </g>
   <g id="patch_335">
    <path d="M 494.93409 360.27807 
L 495.971849 360.27807 
L 495.971849 360.27807 
L 494.93409 360.27807 
z
" clip-path="url(#pa56861b9e2)" style="fill: #008000"/>
   </g>
   <g id="patch_336">
    <path d="M 496.231289 360.27807 
L 497.269048 360.27807 
L 497.269048 360.27807 
L 496.231289 360.27807 
z
" clip-path="url(#pa56861b9e2)" style="fill: #008000"/>
   </g>
   <g id="patch_337">
    <path d="M 497.528488 360.27807 
L 498.566247 360.27807 
L 498.566247 360.27807 
L 497.528488 360.27807 
z
" clip-path="url(#pa56861b9e2)" style="fill: #008000"/>
   </g>
   <g id="patch_338">
    <path d="M 498.825687 360.27807 
L 499.863446 360.27807 
L 499.863446 360.27807 
L 498.825687 360.27807 
z
" clip-path="url(#pa56861b9e2)" style="fill: #008000"/>
   </g>
   <g id="patch_339">
    <path d="M 500.122886 360.27807 
L 501.160645 360.27807 
L 501.160645 360.27807 
L 500.122886 360.27807 
z
" clip-path="url(#pa56861b9e2)" style="fill: #008000"/>
   </g>
   <g id="patch_340">
    <path d="M 501.420085 360.27807 
L 502.457844 360.27807 
L 502.457844 360.27807 
L 501.420085 360.27807 
z
" clip-path="url(#pa56861b9e2)" style="fill: #008000"/>
   </g>
   <g id="patch_341">
    <path d="M 502.717284 360.27807 
L 503.755043 360.27807 
L 503.755043 360.27807 
L 502.717284 360.27807 
z
" clip-path="url(#pa56861b9e2)" style="fill: #008000"/>
   </g>
   <g id="patch_342">
    <path d="M 504.014483 360.27807 
L 505.052242 360.27807 
L 505.052242 360.27807 
L 504.014483 360.27807 
z
" clip-path="url(#pa56861b9e2)" style="fill: #008000"/>
   </g>
   <g id="patch_343">
    <path d="M 505.311682 360.27807 
L 506.349441 360.27807 
L 506.349441 360.27807 
L 505.311682 360.27807 
z
" clip-path="url(#pa56861b9e2)" style="fill: #008000"/>
   </g>
   <g id="patch_344">
    <path d="M 506.608881 360.27807 
L 507.64664 360.27807 
L 507.64664 360.27807 
L 506.608881 360.27807 
z
" clip-path="url(#pa56861b9e2)" style="fill: #008000"/>
   </g>
   <g id="patch_345">
    <path d="M 507.90608 360.27807 
L 508.943839 360.27807 
L 508.943839 343.268795 
L 507.90608 343.268795 
z
" clip-path="url(#pa56861b9e2)" style="fill: #008000"/>
   </g>
   <g id="patch_346">
    <path d="M 509.203279 360.27807 
L 510.241038 360.27807 
L 510.241038 360.27807 
L 509.203279 360.27807 
z
" clip-path="url(#pa56861b9e2)" style="fill: #008000"/>
   </g>
   <g id="patch_347">
    <path d="M 510.500477 360.27807 
L 511.538237 360.27807 
L 511.538237 339.827701 
L 510.500477 339.827701 
z
" clip-path="url(#pa56861b9e2)" style="fill: #008000"/>
   </g>
   <g id="patch_348">
    <path d="M 511.797676 360.27807 
L 512.835436 360.27807 
L 512.835436 360.27807 
L 511.797676 360.27807 
z
" clip-path="url(#pa56861b9e2)" style="fill: #008000"/>
   </g>
   <g id="patch_349">
    <path d="M 513.094875 360.27807 
L 514.132635 360.27807 
L 514.132635 358.695211 
L 513.094875 358.695211 
z
" clip-path="url(#pa56861b9e2)" style="fill: #008000"/>
   </g>
   <g id="patch_350">
    <path d="M 514.392074 360.27807 
L 515.429834 360.27807 
L 515.429834 360.27807 
L 514.392074 360.27807 
z
" clip-path="url(#pa56861b9e2)" style="fill: #008000"/>
   </g>
   <g id="patch_351">
    <path d="M 515.689273 360.27807 
L 516.727032 360.27807 
L 516.727032 360.27807 
L 515.689273 360.27807 
z
" clip-path="url(#pa56861b9e2)" style="fill: #008000"/>
   </g>
   <g id="patch_352">
    <path d="M 516.986472 360.27807 
L 518.024231 360.27807 
L 518.024231 360.27807 
L 516.986472 360.27807 
z
" clip-path="url(#pa56861b9e2)" style="fill: #008000"/>
   </g>
   <g id="patch_353">
    <path d="M 518.283671 360.27807 
L 519.32143 360.27807 
L 519.32143 360.27807 
L 518.283671 360.27807 
z
" clip-path="url(#pa56861b9e2)" style="fill: #008000"/>
   </g>
   <g id="patch_354">
    <path d="M 519.58087 360.27807 
L 520.618629 360.27807 
L 520.618629 360.27807 
L 519.58087 360.27807 
z
" clip-path="url(#pa56861b9e2)" style="fill: #008000"/>
   </g>
   <g id="patch_355">
    <path d="M 520.878069 360.27807 
L 521.915828 360.27807 
L 521.915828 352.453249 
L 520.878069 352.453249 
z
" clip-path="url(#pa56861b9e2)" style="fill: #008000"/>
   </g>
   <g id="patch_356">
    <path d="M 522.175268 360.27807 
L 523.213027 360.27807 
L 523.213027 341.828559 
L 522.175268 341.828559 
z
" clip-path="url(#pa56861b9e2)" style="fill: #008000"/>
   </g>
   <g id="patch_357">
    <path d="M 523.472467 360.27807 
L 524.510226 360.27807 
L 524.510226 343.340881 
L 523.472467 343.340881 
z
" clip-path="url(#pa56861b9e2)" style="fill: #008000"/>
   </g>
   <g id="patch_358">
    <path d="M 524.769666 360.27807 
L 525.807425 360.27807 
L 525.807425 360.27807 
L 524.769666 360.27807 
z
" clip-path="url(#pa56861b9e2)" style="fill: #008000"/>
   </g>
   <g id="patch_359">
    <path d="M 526.066865 360.27807 
L 527.104624 360.27807 
L 527.104624 360.27807 
L 526.066865 360.27807 
z
" clip-path="url(#pa56861b9e2)" style="fill: #008000"/>
   </g>
   <g id="patch_360">
    <path d="M 527.364064 360.27807 
L 528.401823 360.27807 
L 528.401823 360.27807 
L 527.364064 360.27807 
z
" clip-path="url(#pa56861b9e2)" style="fill: #008000"/>
   </g>
   <g id="patch_361">
    <path d="M 528.661263 360.27807 
L 529.699022 360.27807 
L 529.699022 360.27807 
L 528.661263 360.27807 
z
" clip-path="url(#pa56861b9e2)" style="fill: #008000"/>
   </g>
   <g id="patch_362">
    <path d="M 529.958462 360.27807 
L 530.996221 360.27807 
L 530.996221 360.27807 
L 529.958462 360.27807 
z
" clip-path="url(#pa56861b9e2)" style="fill: #008000"/>
   </g>
   <g id="patch_363">
    <path d="M 531.255661 360.27807 
L 532.29342 360.27807 
L 532.29342 360.27807 
L 531.255661 360.27807 
z
" clip-path="url(#pa56861b9e2)" style="fill: #008000"/>
   </g>
   <g id="patch_364">
    <path d="M 532.55286 360.27807 
L 533.590619 360.27807 
L 533.590619 360.27807 
L 532.55286 360.27807 
z
" clip-path="url(#pa56861b9e2)" style="fill: #008000"/>
   </g>
   <g id="patch_365">
    <path d="M 533.850059 360.27807 
L 534.887818 360.27807 
L 534.887818 360.27807 
L 533.850059 360.27807 
z
" clip-path="url(#pa56861b9e2)" style="fill: #008000"/>
   </g>
   <g id="patch_366">
    <path d="M 535.147258 360.27807 
L 536.185017 360.27807 
L 536.185017 360.27807 
L 535.147258 360.27807 
z
" clip-path="url(#pa56861b9e2)" style="fill: #008000"/>
   </g>
   <g id="patch_367">
    <path d="M 536.444457 360.27807 
L 537.482216 360.27807 
L 537.482216 360.27807 
L 536.444457 360.27807 
z
" clip-path="url(#pa56861b9e2)" style="fill: #008000"/>
   </g>
   <g id="matplotlib.axis_1">
    <g id="xtick_1">
     <g id="line2d_1">
      <defs>
       <path id="m9d545167be" d="M 0 0 
L 0 3.5 
" style="stroke: #000000; stroke-width: 0.8"/>
      </defs>
      <g>
       <use xlink:href="#m9d545167be" x="64.782914" y="360.27807" style="stroke: #000000; stroke-width: 0.8"/>
      </g>
     </g>
     <g id="text_1">
      <!-- 2014-01 -->
      <g transform="translate(51.961631 402.195887) rotate(-45) scale(0.1 -0.1)">
       <defs>
        <path id="DejaVuSans-32" d="M 1228 531 
L 3431 531 
L 3431 0 
L 469 0 
L 469 531 
Q 828 903 1448 1529 
Q 2069 2156 2228 2338 
Q 2531 2678 2651 2914 
Q 2772 3150 2772 3378 
Q 2772 3750 2511 3984 
Q 2250 4219 1831 4219 
Q 1534 4219 1204 4116 
Q 875 4013 500 3803 
L 500 4441 
Q 881 4594 1212 4672 
Q 1544 4750 1819 4750 
Q 2544 4750 2975 4387 
Q 3406 4025 3406 3419 
Q 3406 3131 3298 2873 
Q 3191 2616 2906 2266 
Q 2828 2175 2409 1742 
Q 1991 1309 1228 531 
z
" transform="scale(0.015625)"/>
        <path id="DejaVuSans-30" d="M 2034 4250 
Q 1547 4250 1301 3770 
Q 1056 3291 1056 2328 
Q 1056 1369 1301 889 
Q 1547 409 2034 409 
Q 2525 409 2770 889 
Q 3016 1369 3016 2328 
Q 3016 3291 2770 3770 
Q 2525 4250 2034 4250 
z
M 2034 4750 
Q 2819 4750 3233 4129 
Q 3647 3509 3647 2328 
Q 3647 1150 3233 529 
Q 2819 -91 2034 -91 
Q 1250 -91 836 529 
Q 422 1150 422 2328 
Q 422 3509 836 4129 
Q 1250 4750 2034 4750 
z
" transform="scale(0.015625)"/>
        <path id="DejaVuSans-31" d="M 794 531 
L 1825 531 
L 1825 4091 
L 703 3866 
L 703 4441 
L 1819 4666 
L 2450 4666 
L 2450 531 
L 3481 531 
L 3481 0 
L 794 0 
L 794 531 
z
" transform="scale(0.015625)"/>
        <path id="DejaVuSans-34" d="M 2419 4116 
L 825 1625 
L 2419 1625 
L 2419 4116 
z
M 2253 4666 
L 3047 4666 
L 3047 1625 
L 3713 1625 
L 3713 1100 
L 3047 1100 
L 3047 0 
L 2419 0 
L 2419 1100 
L 313 1100 
L 313 1709 
L 2253 4666 
z
" transform="scale(0.015625)"/>
        <path id="DejaVuSans-2d" d="M 313 2009 
L 1997 2009 
L 1997 1497 
L 313 1497 
L 313 2009 
z
" transform="scale(0.015625)"/>
       </defs>
       <use xlink:href="#DejaVuSans-32"/>
       <use xlink:href="#DejaVuSans-30" x="63.623047"/>
       <use xlink:href="#DejaVuSans-31" x="127.246094"/>
       <use xlink:href="#DejaVuSans-34" x="190.869141"/>
       <use xlink:href="#DejaVuSans-2d" x="254.492188"/>
       <use xlink:href="#DejaVuSans-30" x="290.576172"/>
       <use xlink:href="#DejaVuSans-31" x="354.199219"/>
      </g>
     </g>
    </g>
    <g id="xtick_2">
     <g id="line2d_2">
      <g>
       <use xlink:href="#m9d545167be" x="141.317653" y="360.27807" style="stroke: #000000; stroke-width: 0.8"/>
      </g>
     </g>
     <g id="text_2">
      <!-- 2014-03 -->
      <g transform="translate(128.49637 402.195887) rotate(-45) scale(0.1 -0.1)">
       <defs>
        <path id="DejaVuSans-33" d="M 2597 2516 
Q 3050 2419 3304 2112 
Q 3559 1806 3559 1356 
Q 3559 666 3084 287 
Q 2609 -91 1734 -91 
Q 1441 -91 1130 -33 
Q 819 25 488 141 
L 488 750 
Q 750 597 1062 519 
Q 1375 441 1716 441 
Q 2309 441 2620 675 
Q 2931 909 2931 1356 
Q 2931 1769 2642 2001 
Q 2353 2234 1838 2234 
L 1294 2234 
L 1294 2753 
L 1863 2753 
Q 2328 2753 2575 2939 
Q 2822 3125 2822 3475 
Q 2822 3834 2567 4026 
Q 2313 4219 1838 4219 
Q 1578 4219 1281 4162 
Q 984 4106 628 3988 
L 628 4550 
Q 988 4650 1302 4700 
Q 1616 4750 1894 4750 
Q 2613 4750 3031 4423 
Q 3450 4097 3450 3541 
Q 3450 3153 3228 2886 
Q 3006 2619 2597 2516 
z
" transform="scale(0.015625)"/>
       </defs>
       <use xlink:href="#DejaVuSans-32"/>
       <use xlink:href="#DejaVuSans-30" x="63.623047"/>
       <use xlink:href="#DejaVuSans-31" x="127.246094"/>
       <use xlink:href="#DejaVuSans-34" x="190.869141"/>
       <use xlink:href="#DejaVuSans-2d" x="254.492188"/>
       <use xlink:href="#DejaVuSans-30" x="290.576172"/>
       <use xlink:href="#DejaVuSans-33" x="354.199219"/>
      </g>
     </g>
    </g>
    <g id="xtick_3">
     <g id="line2d_3">
      <g>
       <use xlink:href="#m9d545167be" x="220.446789" y="360.27807" style="stroke: #000000; stroke-width: 0.8"/>
      </g>
     </g>
     <g id="text_3">
      <!-- 2014-05 -->
      <g transform="translate(207.625507 402.195887) rotate(-45) scale(0.1 -0.1)">
       <defs>
        <path id="DejaVuSans-35" d="M 691 4666 
L 3169 4666 
L 3169 4134 
L 1269 4134 
L 1269 2991 
Q 1406 3038 1543 3061 
Q 1681 3084 1819 3084 
Q 2600 3084 3056 2656 
Q 3513 2228 3513 1497 
Q 3513 744 3044 326 
Q 2575 -91 1722 -91 
Q 1428 -91 1123 -41 
Q 819 9 494 109 
L 494 744 
Q 775 591 1075 516 
Q 1375 441 1709 441 
Q 2250 441 2565 725 
Q 2881 1009 2881 1497 
Q 2881 1984 2565 2268 
Q 2250 2553 1709 2553 
Q 1456 2553 1204 2497 
Q 953 2441 691 2322 
L 691 4666 
z
" transform="scale(0.015625)"/>
       </defs>
       <use xlink:href="#DejaVuSans-32"/>
       <use xlink:href="#DejaVuSans-30" x="63.623047"/>
       <use xlink:href="#DejaVuSans-31" x="127.246094"/>
       <use xlink:href="#DejaVuSans-34" x="190.869141"/>
       <use xlink:href="#DejaVuSans-2d" x="254.492188"/>
       <use xlink:href="#DejaVuSans-30" x="290.576172"/>
       <use xlink:href="#DejaVuSans-35" x="354.199219"/>
      </g>
     </g>
    </g>
    <g id="xtick_4">
     <g id="line2d_4">
      <g>
       <use xlink:href="#m9d545167be" x="299.575926" y="360.27807" style="stroke: #000000; stroke-width: 0.8"/>
      </g>
     </g>
     <g id="text_4">
      <!-- 2014-07 -->
      <g transform="translate(286.754644 402.195887) rotate(-45) scale(0.1 -0.1)">
       <defs>
        <path id="DejaVuSans-37" d="M 525 4666 
L 3525 4666 
L 3525 4397 
L 1831 0 
L 1172 0 
L 2766 4134 
L 525 4134 
L 525 4666 
z
" transform="scale(0.015625)"/>
       </defs>
       <use xlink:href="#DejaVuSans-32"/>
       <use xlink:href="#DejaVuSans-30" x="63.623047"/>
       <use xlink:href="#DejaVuSans-31" x="127.246094"/>
       <use xlink:href="#DejaVuSans-34" x="190.869141"/>
       <use xlink:href="#DejaVuSans-2d" x="254.492188"/>
       <use xlink:href="#DejaVuSans-30" x="290.576172"/>
       <use xlink:href="#DejaVuSans-37" x="354.199219"/>
      </g>
     </g>
    </g>
    <g id="xtick_5">
     <g id="line2d_5">
      <g>
       <use xlink:href="#m9d545167be" x="380.002262" y="360.27807" style="stroke: #000000; stroke-width: 0.8"/>
      </g>
     </g>
     <g id="text_5">
      <!-- 2014-09 -->
      <g transform="translate(367.18098 402.195887) rotate(-45) scale(0.1 -0.1)">
       <defs>
        <path id="DejaVuSans-39" d="M 703 97 
L 703 672 
Q 941 559 1184 500 
Q 1428 441 1663 441 
Q 2288 441 2617 861 
Q 2947 1281 2994 2138 
Q 2813 1869 2534 1725 
Q 2256 1581 1919 1581 
Q 1219 1581 811 2004 
Q 403 2428 403 3163 
Q 403 3881 828 4315 
Q 1253 4750 1959 4750 
Q 2769 4750 3195 4129 
Q 3622 3509 3622 2328 
Q 3622 1225 3098 567 
Q 2575 -91 1691 -91 
Q 1453 -91 1209 -44 
Q 966 3 703 97 
z
M 1959 2075 
Q 2384 2075 2632 2365 
Q 2881 2656 2881 3163 
Q 2881 3666 2632 3958 
Q 2384 4250 1959 4250 
Q 1534 4250 1286 3958 
Q 1038 3666 1038 3163 
Q 1038 2656 1286 2365 
Q 1534 2075 1959 2075 
z
" transform="scale(0.015625)"/>
       </defs>
       <use xlink:href="#DejaVuSans-32"/>
       <use xlink:href="#DejaVuSans-30" x="63.623047"/>
       <use xlink:href="#DejaVuSans-31" x="127.246094"/>
       <use xlink:href="#DejaVuSans-34" x="190.869141"/>
       <use xlink:href="#DejaVuSans-2d" x="254.492188"/>
       <use xlink:href="#DejaVuSans-30" x="290.576172"/>
       <use xlink:href="#DejaVuSans-39" x="354.199219"/>
      </g>
     </g>
    </g>
    <g id="xtick_6">
     <g id="line2d_6">
      <g>
       <use xlink:href="#m9d545167be" x="459.131399" y="360.27807" style="stroke: #000000; stroke-width: 0.8"/>
      </g>
     </g>
     <g id="text_6">
      <!-- 2014-11 -->
      <g transform="translate(446.310116 402.195887) rotate(-45) scale(0.1 -0.1)">
       <use xlink:href="#DejaVuSans-32"/>
       <use xlink:href="#DejaVuSans-30" x="63.623047"/>
       <use xlink:href="#DejaVuSans-31" x="127.246094"/>
       <use xlink:href="#DejaVuSans-34" x="190.869141"/>
       <use xlink:href="#DejaVuSans-2d" x="254.492188"/>
       <use xlink:href="#DejaVuSans-31" x="290.576172"/>
       <use xlink:href="#DejaVuSans-31" x="354.199219"/>
      </g>
     </g>
    </g>
    <g id="xtick_7">
     <g id="line2d_7">
      <g>
       <use xlink:href="#m9d545167be" x="538.260535" y="360.27807" style="stroke: #000000; stroke-width: 0.8"/>
      </g>
     </g>
     <g id="text_7">
      <!-- 2015-01 -->
      <g transform="translate(525.439253 402.195887) rotate(-45) scale(0.1 -0.1)">
       <use xlink:href="#DejaVuSans-32"/>
       <use xlink:href="#DejaVuSans-30" x="63.623047"/>
       <use xlink:href="#DejaVuSans-31" x="127.246094"/>
       <use xlink:href="#DejaVuSans-35" x="190.869141"/>
       <use xlink:href="#DejaVuSans-2d" x="254.492188"/>
       <use xlink:href="#DejaVuSans-30" x="290.576172"/>
       <use xlink:href="#DejaVuSans-31" x="354.199219"/>
      </g>
     </g>
    </g>
    <g id="text_8">
     <!-- Days -->
     <g transform="translate(288.395 415.264885) scale(0.1 -0.1)">
      <defs>
       <path id="DejaVuSans-44" d="M 1259 4147 
L 1259 519 
L 2022 519 
Q 2988 519 3436 956 
Q 3884 1394 3884 2338 
Q 3884 3275 3436 3711 
Q 2988 4147 2022 4147 
L 1259 4147 
z
M 628 4666 
L 1925 4666 
Q 3281 4666 3915 4102 
Q 4550 3538 4550 2338 
Q 4550 1131 3912 565 
Q 3275 0 1925 0 
L 628 0 
L 628 4666 
z
" transform="scale(0.015625)"/>
       <path id="DejaVuSans-61" d="M 2194 1759 
Q 1497 1759 1228 1600 
Q 959 1441 959 1056 
Q 959 750 1161 570 
Q 1363 391 1709 391 
Q 2188 391 2477 730 
Q 2766 1069 2766 1631 
L 2766 1759 
L 2194 1759 
z
M 3341 1997 
L 3341 0 
L 2766 0 
L 2766 531 
Q 2569 213 2275 61 
Q 1981 -91 1556 -91 
Q 1019 -91 701 211 
Q 384 513 384 1019 
Q 384 1609 779 1909 
Q 1175 2209 1959 2209 
L 2766 2209 
L 2766 2266 
Q 2766 2663 2505 2880 
Q 2244 3097 1772 3097 
Q 1472 3097 1187 3025 
Q 903 2953 641 2809 
L 641 3341 
Q 956 3463 1253 3523 
Q 1550 3584 1831 3584 
Q 2591 3584 2966 3190 
Q 3341 2797 3341 1997 
z
" transform="scale(0.015625)"/>
       <path id="DejaVuSans-79" d="M 2059 -325 
Q 1816 -950 1584 -1140 
Q 1353 -1331 966 -1331 
L 506 -1331 
L 506 -850 
L 844 -850 
Q 1081 -850 1212 -737 
Q 1344 -625 1503 -206 
L 1606 56 
L 191 3500 
L 800 3500 
L 1894 763 
L 2988 3500 
L 3597 3500 
L 2059 -325 
z
" transform="scale(0.015625)"/>
       <path id="DejaVuSans-73" d="M 2834 3397 
L 2834 2853 
Q 2591 2978 2328 3040 
Q 2066 3103 1784 3103 
Q 1356 3103 1142 2972 
Q 928 2841 928 2578 
Q 928 2378 1081 2264 
Q 1234 2150 1697 2047 
L 1894 2003 
Q 2506 1872 2764 1633 
Q 3022 1394 3022 966 
Q 3022 478 2636 193 
Q 2250 -91 1575 -91 
Q 1294 -91 989 -36 
Q 684 19 347 128 
L 347 722 
Q 666 556 975 473 
Q 1284 391 1588 391 
Q 1994 391 2212 530 
Q 2431 669 2431 922 
Q 2431 1156 2273 1281 
Q 2116 1406 1581 1522 
L 1381 1569 
Q 847 1681 609 1914 
Q 372 2147 372 2553 
Q 372 3047 722 3315 
Q 1072 3584 1716 3584 
Q 2034 3584 2315 3537 
Q 2597 3491 2834 3397 
z
" transform="scale(0.015625)"/>
      </defs>
      <use xlink:href="#DejaVuSans-44"/>
      <use xlink:href="#DejaVuSans-61" x="77.001953"/>
      <use xlink:href="#DejaVuSans-79" x="138.28125"/>
      <use xlink:href="#DejaVuSans-73" x="197.460938"/>
     </g>
    </g>
   </g>
   <g id="matplotlib.axis_2">
    <g id="ytick_1">
     <g id="line2d_8">
      <defs>
       <path id="m5f71db8af1" d="M 0 0 
L -3.5 0 
" style="stroke: #000000; stroke-width: 0.8"/>
      </defs>
      <g>
       <use xlink:href="#m5f71db8af1" x="40.603125" y="360.27807" style="stroke: #000000; stroke-width: 0.8"/>
      </g>
     </g>
     <g id="text_9">
      <!-- 0 -->
      <g transform="translate(27.240625 364.077289) scale(0.1 -0.1)">
       <use xlink:href="#DejaVuSans-30"/>
      </g>
     </g>
    </g>
    <g id="ytick_2">
     <g id="line2d_9">
      <g>
       <use xlink:href="#m5f71db8af1" x="40.603125" y="286.083231" style="stroke: #000000; stroke-width: 0.8"/>
      </g>
     </g>
     <g id="text_10">
      <!-- 20 -->
      <g transform="translate(20.878125 289.88245) scale(0.1 -0.1)">
       <use xlink:href="#DejaVuSans-32"/>
       <use xlink:href="#DejaVuSans-30" x="63.623047"/>
      </g>
     </g>
    </g>
    <g id="ytick_3">
     <g id="line2d_10">
      <g>
       <use xlink:href="#m5f71db8af1" x="40.603125" y="211.888393" style="stroke: #000000; stroke-width: 0.8"/>
      </g>
     </g>
     <g id="text_11">
      <!-- 40 -->
      <g transform="translate(20.878125 215.687612) scale(0.1 -0.1)">
       <use xlink:href="#DejaVuSans-34"/>
       <use xlink:href="#DejaVuSans-30" x="63.623047"/>
      </g>
     </g>
    </g>
    <g id="ytick_4">
     <g id="line2d_11">
      <g>
       <use xlink:href="#m5f71db8af1" x="40.603125" y="137.693554" style="stroke: #000000; stroke-width: 0.8"/>
      </g>
     </g>
     <g id="text_12">
      <!-- 60 -->
      <g transform="translate(20.878125 141.492773) scale(0.1 -0.1)">
       <defs>
        <path id="DejaVuSans-36" d="M 2113 2584 
Q 1688 2584 1439 2293 
Q 1191 2003 1191 1497 
Q 1191 994 1439 701 
Q 1688 409 2113 409 
Q 2538 409 2786 701 
Q 3034 994 3034 1497 
Q 3034 2003 2786 2293 
Q 2538 2584 2113 2584 
z
M 3366 4563 
L 3366 3988 
Q 3128 4100 2886 4159 
Q 2644 4219 2406 4219 
Q 1781 4219 1451 3797 
Q 1122 3375 1075 2522 
Q 1259 2794 1537 2939 
Q 1816 3084 2150 3084 
Q 2853 3084 3261 2657 
Q 3669 2231 3669 1497 
Q 3669 778 3244 343 
Q 2819 -91 2113 -91 
Q 1303 -91 875 529 
Q 447 1150 447 2328 
Q 447 3434 972 4092 
Q 1497 4750 2381 4750 
Q 2619 4750 2861 4703 
Q 3103 4656 3366 4563 
z
" transform="scale(0.015625)"/>
       </defs>
       <use xlink:href="#DejaVuSans-36"/>
       <use xlink:href="#DejaVuSans-30" x="63.623047"/>
      </g>
     </g>
    </g>
    <g id="ytick_5">
     <g id="line2d_12">
      <g>
       <use xlink:href="#m5f71db8af1" x="40.603125" y="63.498716" style="stroke: #000000; stroke-width: 0.8"/>
      </g>
     </g>
     <g id="text_13">
      <!-- 80 -->
      <g transform="translate(20.878125 67.297934) scale(0.1 -0.1)">
       <defs>
        <path id="DejaVuSans-38" d="M 2034 2216 
Q 1584 2216 1326 1975 
Q 1069 1734 1069 1313 
Q 1069 891 1326 650 
Q 1584 409 2034 409 
Q 2484 409 2743 651 
Q 3003 894 3003 1313 
Q 3003 1734 2745 1975 
Q 2488 2216 2034 2216 
z
M 1403 2484 
Q 997 2584 770 2862 
Q 544 3141 544 3541 
Q 544 4100 942 4425 
Q 1341 4750 2034 4750 
Q 2731 4750 3128 4425 
Q 3525 4100 3525 3541 
Q 3525 3141 3298 2862 
Q 3072 2584 2669 2484 
Q 3125 2378 3379 2068 
Q 3634 1759 3634 1313 
Q 3634 634 3220 271 
Q 2806 -91 2034 -91 
Q 1263 -91 848 271 
Q 434 634 434 1313 
Q 434 1759 690 2068 
Q 947 2378 1403 2484 
z
M 1172 3481 
Q 1172 3119 1398 2916 
Q 1625 2713 2034 2713 
Q 2441 2713 2670 2916 
Q 2900 3119 2900 3481 
Q 2900 3844 2670 4047 
Q 2441 4250 2034 4250 
Q 1625 4250 1398 4047 
Q 1172 3844 1172 3481 
z
" transform="scale(0.015625)"/>
       </defs>
       <use xlink:href="#DejaVuSans-38"/>
       <use xlink:href="#DejaVuSans-30" x="63.623047"/>
      </g>
     </g>
    </g>
    <g id="text_14">
     <!-- Precipitation (mm) -->
     <g transform="translate(14.798438 237.779347) rotate(-90) scale(0.1 -0.1)">
      <defs>
       <path id="DejaVuSans-50" d="M 1259 4147 
L 1259 2394 
L 2053 2394 
Q 2494 2394 2734 2622 
Q 2975 2850 2975 3272 
Q 2975 3691 2734 3919 
Q 2494 4147 2053 4147 
L 1259 4147 
z
M 628 4666 
L 2053 4666 
Q 2838 4666 3239 4311 
Q 3641 3956 3641 3272 
Q 3641 2581 3239 2228 
Q 2838 1875 2053 1875 
L 1259 1875 
L 1259 0 
L 628 0 
L 628 4666 
z
" transform="scale(0.015625)"/>
       <path id="DejaVuSans-72" d="M 2631 2963 
Q 2534 3019 2420 3045 
Q 2306 3072 2169 3072 
Q 1681 3072 1420 2755 
Q 1159 2438 1159 1844 
L 1159 0 
L 581 0 
L 581 3500 
L 1159 3500 
L 1159 2956 
Q 1341 3275 1631 3429 
Q 1922 3584 2338 3584 
Q 2397 3584 2469 3576 
Q 2541 3569 2628 3553 
L 2631 2963 
z
" transform="scale(0.015625)"/>
       <path id="DejaVuSans-65" d="M 3597 1894 
L 3597 1613 
L 953 1613 
Q 991 1019 1311 708 
Q 1631 397 2203 397 
Q 2534 397 2845 478 
Q 3156 559 3463 722 
L 3463 178 
Q 3153 47 2828 -22 
Q 2503 -91 2169 -91 
Q 1331 -91 842 396 
Q 353 884 353 1716 
Q 353 2575 817 3079 
Q 1281 3584 2069 3584 
Q 2775 3584 3186 3129 
Q 3597 2675 3597 1894 
z
M 3022 2063 
Q 3016 2534 2758 2815 
Q 2500 3097 2075 3097 
Q 1594 3097 1305 2825 
Q 1016 2553 972 2059 
L 3022 2063 
z
" transform="scale(0.015625)"/>
       <path id="DejaVuSans-63" d="M 3122 3366 
L 3122 2828 
Q 2878 2963 2633 3030 
Q 2388 3097 2138 3097 
Q 1578 3097 1268 2742 
Q 959 2388 959 1747 
Q 959 1106 1268 751 
Q 1578 397 2138 397 
Q 2388 397 2633 464 
Q 2878 531 3122 666 
L 3122 134 
Q 2881 22 2623 -34 
Q 2366 -91 2075 -91 
Q 1284 -91 818 406 
Q 353 903 353 1747 
Q 353 2603 823 3093 
Q 1294 3584 2113 3584 
Q 2378 3584 2631 3529 
Q 2884 3475 3122 3366 
z
" transform="scale(0.015625)"/>
       <path id="DejaVuSans-69" d="M 603 3500 
L 1178 3500 
L 1178 0 
L 603 0 
L 603 3500 
z
M 603 4863 
L 1178 4863 
L 1178 4134 
L 603 4134 
L 603 4863 
z
" transform="scale(0.015625)"/>
       <path id="DejaVuSans-70" d="M 1159 525 
L 1159 -1331 
L 581 -1331 
L 581 3500 
L 1159 3500 
L 1159 2969 
Q 1341 3281 1617 3432 
Q 1894 3584 2278 3584 
Q 2916 3584 3314 3078 
Q 3713 2572 3713 1747 
Q 3713 922 3314 415 
Q 2916 -91 2278 -91 
Q 1894 -91 1617 61 
Q 1341 213 1159 525 
z
M 3116 1747 
Q 3116 2381 2855 2742 
Q 2594 3103 2138 3103 
Q 1681 3103 1420 2742 
Q 1159 2381 1159 1747 
Q 1159 1113 1420 752 
Q 1681 391 2138 391 
Q 2594 391 2855 752 
Q 3116 1113 3116 1747 
z
" transform="scale(0.015625)"/>
       <path id="DejaVuSans-74" d="M 1172 4494 
L 1172 3500 
L 2356 3500 
L 2356 3053 
L 1172 3053 
L 1172 1153 
Q 1172 725 1289 603 
Q 1406 481 1766 481 
L 2356 481 
L 2356 0 
L 1766 0 
Q 1100 0 847 248 
Q 594 497 594 1153 
L 594 3053 
L 172 3053 
L 172 3500 
L 594 3500 
L 594 4494 
L 1172 4494 
z
" transform="scale(0.015625)"/>
       <path id="DejaVuSans-6f" d="M 1959 3097 
Q 1497 3097 1228 2736 
Q 959 2375 959 1747 
Q 959 1119 1226 758 
Q 1494 397 1959 397 
Q 2419 397 2687 759 
Q 2956 1122 2956 1747 
Q 2956 2369 2687 2733 
Q 2419 3097 1959 3097 
z
M 1959 3584 
Q 2709 3584 3137 3096 
Q 3566 2609 3566 1747 
Q 3566 888 3137 398 
Q 2709 -91 1959 -91 
Q 1206 -91 779 398 
Q 353 888 353 1747 
Q 353 2609 779 3096 
Q 1206 3584 1959 3584 
z
" transform="scale(0.015625)"/>
       <path id="DejaVuSans-6e" d="M 3513 2113 
L 3513 0 
L 2938 0 
L 2938 2094 
Q 2938 2591 2744 2837 
Q 2550 3084 2163 3084 
Q 1697 3084 1428 2787 
Q 1159 2491 1159 1978 
L 1159 0 
L 581 0 
L 581 3500 
L 1159 3500 
L 1159 2956 
Q 1366 3272 1645 3428 
Q 1925 3584 2291 3584 
Q 2894 3584 3203 3211 
Q 3513 2838 3513 2113 
z
" transform="scale(0.015625)"/>
       <path id="DejaVuSans-20" transform="scale(0.015625)"/>
       <path id="DejaVuSans-28" d="M 1984 4856 
Q 1566 4138 1362 3434 
Q 1159 2731 1159 2009 
Q 1159 1288 1364 580 
Q 1569 -128 1984 -844 
L 1484 -844 
Q 1016 -109 783 600 
Q 550 1309 550 2009 
Q 550 2706 781 3412 
Q 1013 4119 1484 4856 
L 1984 4856 
z
" transform="scale(0.015625)"/>
       <path id="DejaVuSans-6d" d="M 3328 2828 
Q 3544 3216 3844 3400 
Q 4144 3584 4550 3584 
Q 5097 3584 5394 3201 
Q 5691 2819 5691 2113 
L 5691 0 
L 5113 0 
L 5113 2094 
Q 5113 2597 4934 2840 
Q 4756 3084 4391 3084 
Q 3944 3084 3684 2787 
Q 3425 2491 3425 1978 
L 3425 0 
L 2847 0 
L 2847 2094 
Q 2847 2600 2669 2842 
Q 2491 3084 2119 3084 
Q 1678 3084 1418 2786 
Q 1159 2488 1159 1978 
L 1159 0 
L 581 0 
L 581 3500 
L 1159 3500 
L 1159 2956 
Q 1356 3278 1631 3431 
Q 1906 3584 2284 3584 
Q 2666 3584 2933 3390 
Q 3200 3197 3328 2828 
z
" transform="scale(0.015625)"/>
       <path id="DejaVuSans-29" d="M 513 4856 
L 1013 4856 
Q 1481 4119 1714 3412 
Q 1947 2706 1947 2009 
Q 1947 1309 1714 600 
Q 1481 -109 1013 -844 
L 513 -844 
Q 928 -128 1133 580 
Q 1338 1288 1338 2009 
Q 1338 2731 1133 3434 
Q 928 4138 513 4856 
z
" transform="scale(0.015625)"/>
      </defs>
      <use xlink:href="#DejaVuSans-50"/>
      <use xlink:href="#DejaVuSans-72" x="58.552734"/>
      <use xlink:href="#DejaVuSans-65" x="97.416016"/>
      <use xlink:href="#DejaVuSans-63" x="158.939453"/>
      <use xlink:href="#DejaVuSans-69" x="213.919922"/>
      <use xlink:href="#DejaVuSans-70" x="241.703125"/>
      <use xlink:href="#DejaVuSans-69" x="305.179688"/>
      <use xlink:href="#DejaVuSans-74" x="332.962891"/>
      <use xlink:href="#DejaVuSans-61" x="372.171875"/>
      <use xlink:href="#DejaVuSans-74" x="433.451172"/>
      <use xlink:href="#DejaVuSans-69" x="472.660156"/>
      <use xlink:href="#DejaVuSans-6f" x="500.443359"/>
      <use xlink:href="#DejaVuSans-6e" x="561.625"/>
      <use xlink:href="#DejaVuSans-20" x="625.003906"/>
      <use xlink:href="#DejaVuSans-28" x="656.791016"/>
      <use xlink:href="#DejaVuSans-6d" x="695.804688"/>
      <use xlink:href="#DejaVuSans-6d" x="793.216797"/>
      <use xlink:href="#DejaVuSans-29" x="890.628906"/>
     </g>
    </g>
   </g>
   <g id="patch_368">
    <path d="M 40.603125 360.27807 
L 40.603125 22.318125 
" style="fill: none; stroke: #000000; stroke-width: 0.8; stroke-linejoin: miter; stroke-linecap: square"/>
   </g>
   <g id="patch_369">
    <path d="M 561.143125 360.27807 
L 561.143125 22.318125 
" style="fill: none; stroke: #000000; stroke-width: 0.8; stroke-linejoin: miter; stroke-linecap: square"/>
   </g>
   <g id="patch_370">
    <path d="M 40.603125 360.27807 
L 561.143125 360.27807 
" style="fill: none; stroke: #000000; stroke-width: 0.8; stroke-linejoin: miter; stroke-linecap: square"/>
   </g>
   <g id="patch_371">
    <path d="M 40.603125 22.318125 
L 561.143125 22.318125 
" style="fill: none; stroke: #000000; stroke-width: 0.8; stroke-linejoin: miter; stroke-linecap: square"/>
   </g>
   <g id="text_15">
    <!-- Daily Variation of Precipitation in Accra 2014 -->
    <g transform="translate(166.866875 16.318125) scale(0.12 -0.12)">
     <defs>
      <path id="DejaVuSans-6c" d="M 603 4863 
L 1178 4863 
L 1178 0 
L 603 0 
L 603 4863 
z
" transform="scale(0.015625)"/>
      <path id="DejaVuSans-56" d="M 1831 0 
L 50 4666 
L 709 4666 
L 2188 738 
L 3669 4666 
L 4325 4666 
L 2547 0 
L 1831 0 
z
" transform="scale(0.015625)"/>
      <path id="DejaVuSans-66" d="M 2375 4863 
L 2375 4384 
L 1825 4384 
Q 1516 4384 1395 4259 
Q 1275 4134 1275 3809 
L 1275 3500 
L 2222 3500 
L 2222 3053 
L 1275 3053 
L 1275 0 
L 697 0 
L 697 3053 
L 147 3053 
L 147 3500 
L 697 3500 
L 697 3744 
Q 697 4328 969 4595 
Q 1241 4863 1831 4863 
L 2375 4863 
z
" transform="scale(0.015625)"/>
      <path id="DejaVuSans-41" d="M 2188 4044 
L 1331 1722 
L 3047 1722 
L 2188 4044 
z
M 1831 4666 
L 2547 4666 
L 4325 0 
L 3669 0 
L 3244 1197 
L 1141 1197 
L 716 0 
L 50 0 
L 1831 4666 
z
" transform="scale(0.015625)"/>
     </defs>
     <use xlink:href="#DejaVuSans-44"/>
     <use xlink:href="#DejaVuSans-61" x="77.001953"/>
     <use xlink:href="#DejaVuSans-69" x="138.28125"/>
     <use xlink:href="#DejaVuSans-6c" x="166.064453"/>
     <use xlink:href="#DejaVuSans-79" x="193.847656"/>
     <use xlink:href="#DejaVuSans-20" x="253.027344"/>
     <use xlink:href="#DejaVuSans-56" x="284.814453"/>
     <use xlink:href="#DejaVuSans-61" x="345.472656"/>
     <use xlink:href="#DejaVuSans-72" x="406.751953"/>
     <use xlink:href="#DejaVuSans-69" x="447.865234"/>
     <use xlink:href="#DejaVuSans-61" x="475.648438"/>
     <use xlink:href="#DejaVuSans-74" x="536.927734"/>
     <use xlink:href="#DejaVuSans-69" x="576.136719"/>
     <use xlink:href="#DejaVuSans-6f" x="603.919922"/>
     <use xlink:href="#DejaVuSans-6e" x="665.101562"/>
     <use xlink:href="#DejaVuSans-20" x="728.480469"/>
     <use xlink:href="#DejaVuSans-6f" x="760.267578"/>
     <use xlink:href="#DejaVuSans-66" x="821.449219"/>
     <use xlink:href="#DejaVuSans-20" x="856.654297"/>
     <use xlink:href="#DejaVuSans-50" x="888.441406"/>
     <use xlink:href="#DejaVuSans-72" x="946.994141"/>
     <use xlink:href="#DejaVuSans-65" x="985.857422"/>
     <use xlink:href="#DejaVuSans-63" x="1047.380859"/>
     <use xlink:href="#DejaVuSans-69" x="1102.361328"/>
     <use xlink:href="#DejaVuSans-70" x="1130.144531"/>
     <use xlink:href="#DejaVuSans-69" x="1193.621094"/>
     <use xlink:href="#DejaVuSans-74" x="1221.404297"/>
     <use xlink:href="#DejaVuSans-61" x="1260.613281"/>
     <use xlink:href="#DejaVuSans-74" x="1321.892578"/>
     <use xlink:href="#DejaVuSans-69" x="1361.101562"/>
     <use xlink:href="#DejaVuSans-6f" x="1388.884766"/>
     <use xlink:href="#DejaVuSans-6e" x="1450.066406"/>
     <use xlink:href="#DejaVuSans-20" x="1513.445312"/>
     <use xlink:href="#DejaVuSans-69" x="1545.232422"/>
     <use xlink:href="#DejaVuSans-6e" x="1573.015625"/>
     <use xlink:href="#DejaVuSans-20" x="1636.394531"/>
     <use xlink:href="#DejaVuSans-41" x="1668.181641"/>
     <use xlink:href="#DejaVuSans-63" x="1734.839844"/>
     <use xlink:href="#DejaVuSans-63" x="1789.820312"/>
     <use xlink:href="#DejaVuSans-72" x="1844.800781"/>
     <use xlink:href="#DejaVuSans-61" x="1885.914062"/>
     <use xlink:href="#DejaVuSans-20" x="1947.193359"/>
     <use xlink:href="#DejaVuSans-32" x="1978.980469"/>
     <use xlink:href="#DejaVuSans-30" x="2042.603516"/>
     <use xlink:href="#DejaVuSans-31" x="2106.226562"/>
     <use xlink:href="#DejaVuSans-34" x="2169.849609"/>
    </g>
   </g>
   <g id="legend_1">
    <g id="patch_372">
     <path d="M 459.643125 44.99625 
L 554.143125 44.99625 
Q 556.143125 44.99625 556.143125 42.99625 
L 556.143125 29.318125 
Q 556.143125 27.318125 554.143125 27.318125 
L 459.643125 27.318125 
Q 457.643125 27.318125 457.643125 29.318125 
L 457.643125 42.99625 
Q 457.643125 44.99625 459.643125 44.99625 
z
" style="fill: #ffffff; opacity: 0.8; stroke: #cccccc; stroke-linejoin: miter"/>
    </g>
    <g id="patch_373">
     <path d="M 461.643125 38.916562 
L 481.643125 38.916562 
L 481.643125 31.916562 
L 461.643125 31.916562 
z
" style="fill: #008000"/>
    </g>
    <g id="text_16">
     <!-- Precipitation -->
     <g transform="translate(489.643125 38.916562) scale(0.1 -0.1)">
      <use xlink:href="#DejaVuSans-50"/>
      <use xlink:href="#DejaVuSans-72" x="58.552734"/>
      <use xlink:href="#DejaVuSans-65" x="97.416016"/>
      <use xlink:href="#DejaVuSans-63" x="158.939453"/>
      <use xlink:href="#DejaVuSans-69" x="213.919922"/>
      <use xlink:href="#DejaVuSans-70" x="241.703125"/>
      <use xlink:href="#DejaVuSans-69" x="305.179688"/>
      <use xlink:href="#DejaVuSans-74" x="332.962891"/>
      <use xlink:href="#DejaVuSans-61" x="372.171875"/>
      <use xlink:href="#DejaVuSans-74" x="433.451172"/>
      <use xlink:href="#DejaVuSans-69" x="472.660156"/>
      <use xlink:href="#DejaVuSans-6f" x="500.443359"/>
      <use xlink:href="#DejaVuSans-6e" x="561.625"/>
     </g>
    </g>
   </g>
  </g>
 </g>
 <defs>
  <clipPath id="pa56861b9e2">
   <rect x="40.603125" y="22.318125" width="520.54" height="337.959945"/>
  </clipPath>
 </defs>
</svg>
